<?xml version="1.0" encoding="UTF-8" standalone="no"?>
<!-- Created with Inkscape (http://www.inkscape.org/) -->

<svg
   xmlns:dc="http://purl.org/dc/elements/1.1/"
   xmlns:cc="http://creativecommons.org/ns#"
   xmlns:rdf="http://www.w3.org/1999/02/22-rdf-syntax-ns#"
   xmlns:svg="http://www.w3.org/2000/svg"
   xmlns="http://www.w3.org/2000/svg"
   xmlns:sodipodi="http://sodipodi.sourceforge.net/DTD/sodipodi-0.dtd"
   xmlns:inkscape="http://www.inkscape.org/namespaces/inkscape"
   width="2in"
   height="2in"
   viewBox="0 0 50.800003 50.8"
   version="1.1"
   id="svg8"
   sodipodi:docname="monocleLogo-Sticker_2x2.svg"
   inkscape:version="0.92.3 (2405546, 2018-03-11)"
   inkscape:export-filename="\\Prlx2\App\_repos\parallax_view_extension\Resources\monocleLogo.png"
   inkscape:export-xdpi="300"
   inkscape:export-ydpi="300">
  <defs
     id="defs2" />
  <sodipodi:namedview
     id="base"
     pagecolor="#ffffff"
     bordercolor="#666666"
     borderopacity="1.0"
     inkscape:pageopacity="0.0"
     inkscape:pageshadow="2"
     inkscape:zoom="1.979899"
     inkscape:cx="128.70644"
     inkscape:cy="79.754081"
     inkscape:document-units="mm"
     inkscape:current-layer="g1090"
     showgrid="false"
     units="in"
     inkscape:window-width="1920"
     inkscape:window-height="1027"
     inkscape:window-x="1912"
     inkscape:window-y="-8"
     inkscape:window-maximized="1" />
  <metadata
     id="metadata5">
    <rdf:RDF>
      <cc:Work
         rdf:about="">
        <dc:format>image/svg+xml</dc:format>
        <dc:type
           rdf:resource="http://purl.org/dc/dcmitype/StillImage" />
        <dc:title></dc:title>
      </cc:Work>
    </rdf:RDF>
  </metadata>
  <g
     inkscape:label="Layer 1"
     inkscape:groupmode="layer"
     id="layer1"
     transform="translate(0,-246.19999)">
    <g
       id="g1026"
       transform="matrix(1.3871168,0,0,1.3871168,-11.259654,-58.430868)" />
    <g
       id="g1090"
       transform="matrix(3.2894948,0,0,3.2894948,-79.191462,-126.13151)">
      <g
         id="g852"
         transform="matrix(0.84481828,0,0,0.84481828,2.8891853,20.733545)">
        <g
           id="g980"
           transform="matrix(0.13585072,0,0,0.13585072,43.169865,98.241606)">
          <path
             sodipodi:nodetypes="ccsccccccccscccscscsscccscccccsccccccccccccsssccccccccccsscscscccccccccccccccccccccccccccccscccsccccccsssss"
             style="stroke-width:0.26458332"
             id="path901"
             d="m -65.907965,215.7784 c -15.258256,0 -29.605022,-5.75284 -40.397645,-16.19885 -10.80293,-10.45581 -16.75262,-24.36099 -16.75262,-39.15357 0,-10.38464 2.80326,-20.3843 8.10657,-28.91738 0.67178,-1.08055 1.12765,-2.29817 1.61025,-3.58722 0.70618,-1.88595 1.43669,-3.83645 2.91201,-5.42739 1.58618,-1.71001 3.84916,-2.90381 6.03753,-4.05818 1.36816,-0.72179 2.66065,-1.40335 3.73353,-2.17488 2.888722,-2.07698 6.016361,-3.89705 9.296401,-5.4102 0.718343,-0.84534 0.470958,-6.04784 0.306652,-9.50092 -0.333904,-7.020719 -0.678921,-14.280621 2.149739,-17.029906 0.484188,-0.47043 1.100402,-0.719403 1.781969,-0.719403 2.187046,0 5.2705,2.800086 9.164902,8.322734 2.836069,4.021931 5.440892,8.614565 5.806546,10.237255 0.202935,0.90144 1.905529,2.81252 2.721239,3.05488 -0.0066,-0.003 0.05583,0.008 0.20955,0.008 0.248444,0 0.594254,-0.0243 0.994569,-0.0524 0.627063,-0.0439 1.407583,-0.0987 2.318544,-0.0987 3.223154,0 6.269566,0.78052 9.215702,1.53537 2.796381,0.7165 5.437981,1.3933 8.0899,1.3933 h 0.0011 c 0.258233,0 0.515937,-0.007 0.766498,-0.0196 0.387085,-0.0204 1.56501,-0.5842 2.173552,-1.04087 1.928283,-1.44727 4.847167,-4.61698 7.9375,-7.972689 6.525948,-7.0866 10.686521,-11.389518 13.431573,-11.389518 0.796131,0 1.480872,0.354277 1.927489,0.997479 1.455473,2.094441 2.044436,3.6322 2.334154,6.093883 0.03149,0.268288 0.07064,0.56806 0.113507,0.899054 0.51726,3.994944 1.589352,12.274811 -2.122488,23.296561 0.182033,1.43113 0.76544,4.65296 1.767946,5.94598 6.993731,9.02388 11.5128143,23.00341 11.5128143,35.61477 0,14.79259 -5.9494203,28.69777 -16.7520933,39.15357 -10.792354,10.44628 -25.138856,16.19912 -40.396848,16.19912 z M -87.12305,85.981751 c -0.06906,0 -0.08758,0.01191 -0.122237,0.04577 -2.058988,2.001044 -1.695979,9.635067 -1.430867,15.209309 0.336285,7.07311 0.41619,10.80823 -1.640417,11.75438 -3.159654,1.45389 -6.171406,3.20463 -8.951118,5.2033 -1.206501,0.8673 -2.633131,1.61978 -4.012671,2.34765 -2.01189,1.0615 -4.09257,2.159 -5.40253,3.57134 -1.15596,1.24645 -1.77376,2.89639 -2.42808,4.64344 -0.50218,1.34091 -1.02129,2.72759 -1.81795,4.00896 -5.06889,8.15499 -7.74806,17.71994 -7.74806,27.66008 0,29.20841 24.569209,52.97117 54.768751,52.97117 30.199012,0 54.767691,-23.76276 54.767691,-52.97117 0,-12.11633 -4.323027,-25.5233 -11.013546,-34.15586 -1.67005,-2.15371 -2.225675,-6.87255 -2.283619,-7.40331 l -0.02858,-0.26352 0.08573,-0.25109 c 3.636698,-10.62487 2.600061,-18.630375 2.101586,-22.477681 -0.04419,-0.341312 -0.08414,-0.650346 -0.116417,-0.926571 -0.242623,-2.06031 -0.68924,-3.230298 -1.907646,-4.988454 -1.910027,0.02328 -7.781395,6.399477 -11.669183,10.621176 -3.166533,3.43852 -6.157119,6.68628 -8.260292,8.26426 -0.598222,0.44873 -2.303991,1.45282 -3.478477,1.51394 -0.291835,0.0153 -0.591343,0.023 -0.890587,0.023 h -0.0011 c -2.952221,0 -5.86449,-0.74612 -8.680979,-1.46791 -2.803525,-0.71808 -5.702036,-1.46076 -8.624888,-1.46076 -0.827616,0 -1.561835,0.0516 -2.152121,0.0929 -0.445029,0.0312 -0.829204,0.0582 -1.160991,0.0582 -0.359834,0 -0.639498,-0.0331 -0.880534,-0.10424 -1.780645,-0.52467 -4.009495,-3.20146 -4.373297,-4.81648 -0.227807,-1.0115 -2.456392,-5.171809 -5.429515,-9.388209 -4.07035,-5.773208 -6.452394,-7.313613 -7.218098,-7.313613 z m -11.782954,77.088739 c 0,0 16.044069,-6.97416 1.752865,-11.01884 -3.850221,-1.09008 -14.526681,-0.69506 -13.002951,6.21612 0.30401,0.72046 3.59675,3.75364 3.70073,3.45757 7.549356,1.34515 0,0 7.549356,1.34515 z m 0.559329,12.36292 c -7.659955,-5.36522 -15.361175,1.72111 -7.427915,4.65772 5.62557,2.08121 6.300261,1.07686 11.400369,1.88701 3.411009,0.54266 23.061348,1.59491 23.396311,-4.51538 -0.8128,0.0738 -0.08864,1.61528 0,0 -6.053667,0.54848 -12.308682,1.83542 -14.945519,2.34262 -1.95871,0.37677 -3.993621,-1.65682 -6.428052,-2.49608 z m 34.519129,-39.5613 c 5.32474,-0.30427 9.787467,6.49208 9.787467,6.49208 0,0 -4.462727,7.15037 -9.331325,6.9985 -4.868863,-0.15214 -4.647142,-1.87219 -8.063971,-2.6879 -3.39725,-0.81148 2.282825,-10.49841 7.607829,-10.80268 z m -1.515269,3.40678 c 0.723636,-0.94165 2.705894,2.8313 3.001169,0.29765 0.101071,-0.86227 -0.202671,-1.26788 -3.499379,-1.21761 -3.296179,0.0508 -4.766998,7.18185 -2.687638,8.36851 1.603375,0.91466 2.767807,2.48047 2.259278,0.45799 -0.425186,-1.68883 -0.135203,-6.52542 0.92657,-7.90654 z m -32.731603,-9.31942 c 4.056856,0 5.375275,2.63737 5.477139,4.10845 0.101336,1.47082 -2.535767,7.25223 -5.172869,7.25223 -1.238779,5.3e-4 -4.537072,-1.7272 -4.868332,-4.386 -0.37412,-3.00143 2.41247,-6.97468 4.564062,-6.97468 z m -0.55933,1.78091 c 0.758825,-1.08664 -2.911742,0.77417 -2.654302,4.12194 0.25744,3.34698 3.675594,4.84929 2.925765,3.82747 -2.765685,-3.76661 -0.723635,-8.6241 -1.468967,-7.23133 0.747184,0.5633 2.319602,-0.65379 0.5461,-0.94853 -0.111654,-0.0183 0.5842,0.32649 0.651404,0.23045 z m 4.291277,0.92657 c -0.40587,0 -0.735012,0.3519 -0.735012,0.78634 0,0.43392 0.329142,0.78608 0.735012,0.78608 0.406136,0 0.735542,-0.35216 0.735542,-0.78608 0,-0.43444 -0.329406,-0.78634 -0.735542,-0.78634 z"
             inkscape:connector-curvature="0" />
          <path
             style="stroke:#000000;stroke-width:0.91468185;stroke-opacity:1"
             inkscape:connector-curvature="0"
             d="m -63.383246,160.0331 c 5.213687,0 9.878564,-2.37817 12.897014,-6.12837 v 25.06229 c 0,1.00615 0.823214,1.82936 1.829364,1.82936 1.00615,0 1.829363,-0.82321 1.829363,-1.82936 v -33.9347 c 0,-0.0915 0,-0.18294 0,-0.2744 0,-0.45735 0.09147,-0.91469 0.09147,-1.28056 0,-9.14682 -7.408923,-16.55574 -16.555742,-16.55574 -9.146818,0 -16.555741,7.40892 -16.555741,16.55574 -0.09147,9.05535 7.317455,16.55574 16.464273,16.55574 z m 0,-29.54422 c 7.134519,0 12.897014,5.76249 12.897014,12.89701 0,7.13452 -5.762495,12.89702 -12.897014,12.89702 -7.134518,0 -12.897013,-5.7625 -12.897013,-12.89702 0,-7.13452 5.762495,-12.89701 12.897013,-12.89701 z"
             id="path920" />
        </g>
        <path
           transform="matrix(0.08043282,0,0,0.08043282,24.07405,108.52294)"
           inkscape:connector-curvature="0"
           id="path832"
           d="M 114.23234,231.44635 C 100.0722,229.44712 84.610588,223.62949 73.679429,216.18782 66.500295,211.30043 54.512855,199.4495 49.874941,192.65441 44.5495,184.85201 38.672165,172.05266 36.36812,163.23994 c -1.384181,-5.29433 -1.825062,-10.49762 -1.754623,-20.70812 0.116134,-16.83404 2.121148,-25.13035 9.887227,-40.91118 3.007561,-6.111423 6.125638,-12.734069 6.92906,-14.716992 0.803423,-1.982922 2.76839,-4.623929 4.366594,-5.868905 2.979414,-2.320916 15.883038,-10.196994 25.449532,-15.533816 3.1088,-1.734293 5.769756,-4.044871 6.317559,-5.485699 0.520544,-1.369135 0.830954,-10.296196 0.689801,-19.837912 -0.356299,-24.085203 0.651355,-25.969367 8.792303,-16.440288 4.955137,5.800049 14.689637,21.301392 14.689637,23.391963 0,0.687144 1.60681,2.660148 3.57069,4.384454 3.2824,2.881992 4.15911,3.136499 10.85914,3.152413 4.00865,0.0095 10.69772,0.910868 14.8646,2.002993 7.96841,2.088497 17.70249,2.613059 20.11792,1.084141 0.78656,-0.497875 8.89052,-8.332224 18.00881,-17.409663 l 16.5787,-16.504435 1.5061,2.848925 c 3.69298,6.985626 3.58051,27.878092 -0.2206,40.976874 -1.99171,6.863569 -0.70121,13.182345 4.12527,20.198819 11.59853,16.861278 17.46467,38.381268 16.35077,59.982838 -0.68387,13.26206 -2.41386,20.28099 -7.8894,32.00878 -9.34931,20.0248 -26.35991,36.16347 -47.49242,45.05801 -13.31963,5.60616 -34.23556,8.45999 -47.88245,6.53321 z m -5.35968,-52.54105 c 4.58975,-1.18343 8.92347,-4.14993 8.92347,-6.10826 0,-1.43693 -5.32624,-1.11576 -16.66752,1.00509 l -10.101525,1.88901 -4.779632,-2.43752 c -2.628798,-1.34065 -5.280484,-2.43753 -5.892638,-2.43753 -0.612153,0 -4.597995,-1.4023 -8.857427,-3.11624 -11.348019,-4.56626 -18.812992,-3.14993 -18.150069,3.44363 0.236687,2.35414 1.176122,3.47575 4.236699,5.0583 7.935929,4.10346 39.422272,5.76316 51.288642,2.70352 z m 49.24351,-1.41953 c 0.85172,-1.02626 1.09227,-11.02103 0.8813,-36.61803 -0.32605,-39.56023 -0.26778,-39.22472 -8.1872,-47.144142 -5.73896,-5.738953 -11.83782,-8.162977 -20.38724,-8.103015 -11.9625,0.0839 -21.48982,6.298289 -26.52821,17.303577 -3.43843,7.51052 -2.9578,18.84002 1.09244,25.75123 8.95236,15.27606 29.15748,19.63872 42.79154,9.23952 l 3.35236,-2.55697 v 20.5575 c 0,21.14937 0.32843,22.98187 4.11896,22.98187 0.93202,0 2.22174,-0.63519 2.86605,-1.41154 z M 76.615356,144.61992 c 10.64157,-6.74868 8.679024,-13.43591 -4.762028,-16.22627 -6.461699,-1.34144 -15.171967,0.18003 -18.401854,3.21435 -5.153498,4.84146 -1.221609,12.83751 7.292723,14.83077 7.361049,1.72328 10.930891,1.31417 15.871159,-1.81885 z m 0.620201,-36.91677 c 1.696902,-1.93266 3.3939,-5.15904 3.771106,-7.16972 0.570274,-3.039821 0.28082,-4.060536 -1.717943,-6.058042 -1.322074,-1.321243 -3.874234,-2.696 -5.671466,-3.055014 -2.783213,-0.555974 -3.699479,-0.190526 -6.179971,2.464849 -5.17915,5.544298 -4.812099,12.791627 0.802514,15.845417 3.974166,2.16154 5.649216,1.78402 8.99576,-2.02749 z"
           style="opacity:1;vector-effect:none;fill:#ffffff;fill-opacity:1;stroke:none;stroke-width:12.21727753;stroke-linecap:butt;stroke-linejoin:miter;stroke-miterlimit:4;stroke-dasharray:none;stroke-dashoffset:0;stroke-opacity:1" />
        <path
           transform="matrix(0.08043282,0,0,0.08043282,24.07405,108.52294)"
           inkscape:connector-curvature="0"
           id="path834"
           d="m 70.223161,108.05005 c -0.946128,-0.61147 -1.919401,-1.61919 -2.552175,-2.64251 -1.362962,-2.2042 -1.584771,-5.19707 -0.546957,-7.380131 0.68088,-1.432244 1.501395,-2.458356 1.690173,-2.113682 0.0719,0.131275 0.04527,1.031887 -0.05917,2.001361 -0.348911,3.238652 0.35828,6.817242 1.829135,9.255952 0.986718,1.636 0.949713,1.7261 -0.361003,0.87901 z"
           style="opacity:1;vector-effect:none;fill:#ffffff;fill-opacity:1;stroke:none;stroke-width:2.15972996;stroke-linecap:butt;stroke-linejoin:miter;stroke-miterlimit:4;stroke-dasharray:none;stroke-dashoffset:0;stroke-opacity:1" />
        <path
           transform="matrix(0.08043282,0,0,0.08043282,24.07405,108.52294)"
           inkscape:connector-curvature="0"
           id="path836"
           d="m 77.310867,98.47278 c -0.410666,-0.410666 -0.513481,-0.924285 -0.27547,-1.376126 0.278513,-0.528731 0.503706,-0.670303 1.071555,-0.673654 0.939668,-0.0055 1.438268,1.380287 0.727901,2.023161 -0.407404,0.368695 -1.168614,0.381991 -1.523986,0.02662 z"
           style="opacity:1;vector-effect:none;fill:#ffffff;fill-opacity:1;stroke:none;stroke-width:2.15972996;stroke-linecap:butt;stroke-linejoin:miter;stroke-miterlimit:4;stroke-dasharray:none;stroke-dashoffset:0;stroke-opacity:1" />
        <path
           transform="matrix(0.08043282,0,0,0.08043282,24.07405,108.52294)"
           inkscape:connector-curvature="0"
           id="path838"
           d="m 123.6257,121.2387 c -2.52729,-1.78394 -2.79718,-2.04771 -3.14599,-3.07464 -0.97244,-2.863 0.314,-8.25093 2.51965,-10.55287 1.51605,-1.58224 2.99666,-1.94917 6.33668,-1.57039 2.03626,0.23092 2.56602,0.53803 2.65002,1.53625 0.08,0.95043 -0.26437,1.70036 -0.78077,1.70036 -0.23424,0 -0.93936,-0.42587 -1.63012,-0.98454 -1.75983,-1.42329 -2.27979,-1.47765 -2.96396,-0.30987 -0.56333,0.96152 -1.17875,3.86965 -1.40768,6.65195 -0.216,2.62505 -0.16844,3.64449 0.32692,7.00853 0.13604,0.92381 -0.0909,0.87559 -1.90475,-0.40478 z"
           style="opacity:1;vector-effect:none;fill:#ffffff;fill-opacity:1;stroke:none;stroke-width:2.15972996;stroke-linecap:butt;stroke-linejoin:miter;stroke-miterlimit:4;stroke-dasharray:none;stroke-dashoffset:0;stroke-opacity:1" />
        <path
           transform="matrix(0.08043282,0,0,0.08043282,24.07405,108.52294)"
           inkscape:connector-curvature="0"
           id="path840"
           d="m 128.17248,135.15798 c -5.8924,-0.65147 -11.40404,-3.85834 -14.79051,-8.60567 -1.83928,-2.5784 -3.27202,-6.07822 -3.69457,-9.02488 -0.34096,-2.37773 -0.13563,-6.35089 0.4402,-8.51788 2.02569,-7.62316 8.33044,-13.564634 16.08739,-15.160432 9.03813,-1.85937 18.43071,2.648336 22.72758,10.907472 1.62095,3.11567 2.23839,5.7565 2.2469,9.6101 0.006,2.50525 -0.0518,3.09054 -0.46578,4.75216 -2.05385,8.24442 -8.70934,14.51302 -16.83013,15.85177 -1.69373,0.27922 -4.15975,0.35998 -5.72108,0.18736 z m 5.21119,-11.07676 c 2.61788,-0.80143 4.96688,-2.37554 7.83513,-5.25047 1.75297,-1.75706 4.9069,-5.72306 4.9069,-6.17033 0,-0.35643 -1.77763,-2.62638 -3.39398,-4.33394 -4.14784,-4.38191 -8.5092,-6.73174 -12.4828,-6.72552 -3.25268,0.005 -6.27425,1.59907 -9.62417,5.07707 -4.61234,4.78869 -6.92837,10.72201 -4.9554,12.69498 0.22643,0.22643 1.00433,0.58793 1.72866,0.80333 1.44866,0.43079 2.34016,0.8463 4.62672,2.15642 2.68696,1.53952 4.77538,2.07982 8.14466,2.1071 1.54776,0.0125 2.26223,-0.0672 3.21428,-0.35864 z"
           style="opacity:1;vector-effect:none;fill:#ffffff;fill-opacity:1;stroke:none;stroke-width:2.15972996;stroke-linecap:butt;stroke-linejoin:miter;stroke-miterlimit:4;stroke-dasharray:none;stroke-dashoffset:0;stroke-opacity:1" />
      </g>
    </g>
  </g>
</svg>
