<?xml version="1.0" encoding="UTF-8" standalone="no"?>
<svg
   height="48"
   viewBox="0 96 960 960"
   width="48"
   version="1.1"
   id="svg184"
   sodipodi:docname="PaintBrushIcon.svg"
   xml:space="preserve"
   inkscape:version="1.2.1 (9c6d41e410, 2022-07-14)"
   inkscape:export-filename="PaintBrushIcon.png"
   inkscape:export-xdpi="200"
   inkscape:export-ydpi="200"
   xmlns:inkscape="http://www.inkscape.org/namespaces/inkscape"
   xmlns:sodipodi="http://sodipodi.sourceforge.net/DTD/sodipodi-0.dtd"
   xmlns="http://www.w3.org/2000/svg"
   xmlns:svg="http://www.w3.org/2000/svg"><defs
     id="defs188" /><sodipodi:namedview
     id="namedview186"
     pagecolor="#ffffff"
     bordercolor="#000000"
     borderopacity="0.25"
     inkscape:showpageshadow="2"
     inkscape:pageopacity="0.0"
     inkscape:pagecheckerboard="0"
     inkscape:deskcolor="#d1d1d1"
     showgrid="false"
     inkscape:zoom="5.9114584"
     inkscape:cx="-10.065198"
     inkscape:cy="7.6969163"
     inkscape:window-width="3440"
     inkscape:window-height="1351"
     inkscape:window-x="-9"
     inkscape:window-y="246"
     inkscape:window-maximized="1"
     inkscape:current-layer="svg184" /><path
     d="m 680.05582,452.8033 87.78143,86.50174 c 13.53015,13.2442 22.84744,30.19964 26.78167,48.72108 3.93313,18.52144 2.30982,37.79532 -4.67695,55.4014 l -36.52113,92.90928 182.93701,181.65733 c 15.1822,15.28234 23.68591,35.96459 23.64198,57.50307 -0.0429,21.54763 -8.62436,42.1927 -23.87082,57.417 -15.23932,15.2251 -35.89869,23.7848 -57.43899,23.7994 -21.52567,0.1216 -42.19272,-8.4171 -57.34563,-23.706 L 639.68706,850.07058 548.05745,885.31203 c -17.64214,7.42304 -37.10147,9.40388 -55.87921,5.69246 -18.77958,-3.71143 -36.02134,-12.94378 -49.52294,-26.51622 l -86.50174,-86.50175 z"
     id="path531"
     style="stroke-width:1.83072;fill:#a43530;fill-opacity:1" /><path
     d="M 8.2164336,476.51118 101.44793,383.92411 c 60.3773,32.76082 116.45057,72.89946 166.91816,119.4969 l 24.02826,21.1467 42.60646,-47.73432 -24.02826,-21.1467 C 261.35625,410.27556 207.00752,370.3145 148.86004,336.51016 l 50.94541,-51.26029 c 44.68799,27.03981 86.64454,58.369 125.26185,93.54638 l 24.02826,21.1467 42.61378,-48.05653 -24.02826,-21.46891 C 329.88577,296.29097 289.26748,265.41946 246.26009,238.15264 L 379.85357,104.87405 c 7.1012,-7.229901 17.19874,-10.669649 27.23203,-9.289466 9.86157,1.415956 18.5068,7.330036 23.39117,16.018846 l 36.52113,65.99946 c 46.34663,83.11856 102.96362,160.07491 168.52005,229.06028 L 310.01508,732.16604 C 240.83382,666.60413 163.77861,609.89376 80.625264,563.32379 L 16.549894,527.12486 C 7.8610936,522.24049 1.9469336,513.59471 0.53105356,503.73369 -1.2710764,493.95799 1.5679936,483.89596 8.2186336,476.50166 Z"
     id="path533"
     style="stroke-width:1.83072;fill:#499ec0;fill-opacity:1" /></svg>
