<?xml version="1.0" encoding="UTF-8" standalone="no"?>
<!-- Created with Inkscape (http://www.inkscape.org/) -->

<svg
   xmlns:dc="http://purl.org/dc/elements/1.1/"
   xmlns:cc="http://creativecommons.org/ns#"
   xmlns:rdf="http://www.w3.org/1999/02/22-rdf-syntax-ns#"
   xmlns:svg="http://www.w3.org/2000/svg"
   xmlns="http://www.w3.org/2000/svg"
   xmlns:sodipodi="http://sodipodi.sourceforge.net/DTD/sodipodi-0.dtd"
   xmlns:inkscape="http://www.inkscape.org/namespaces/inkscape"
   version="1.1"
   id="svg826"
   width="25"
   height="25"
   viewBox="0 0 25 25"
   sodipodi:docname="back_normal.svg"
   inkscape:version="0.92.3 (2405546, 2018-03-11)"
   inkscape:export-filename="C:\Users\johnpierson\Documents\Repos\MonocleForDynamo\src\Icons\StandardViews\back_normal.png"
   inkscape:export-xdpi="96"
   inkscape:export-ydpi="96">
  <metadata
     id="metadata832">
    <rdf:RDF>
      <cc:Work
         rdf:about="">
        <dc:format>image/svg+xml</dc:format>
        <dc:type
           rdf:resource="http://purl.org/dc/dcmitype/StillImage" />
        <dc:title></dc:title>
      </cc:Work>
    </rdf:RDF>
  </metadata>
  <defs
     id="defs830" />
  <sodipodi:namedview
     pagecolor="#ffffff"
     bordercolor="#666666"
     borderopacity="1"
     objecttolerance="10"
     gridtolerance="10"
     guidetolerance="10"
     inkscape:pageopacity="0"
     inkscape:pageshadow="2"
     inkscape:window-width="1921"
     inkscape:window-height="1018"
     id="namedview828"
     showgrid="false"
     inkscape:zoom="8.90625"
     inkscape:cx="14.595772"
     inkscape:cy="7.7629216"
     inkscape:window-x="951"
     inkscape:window-y="0"
     inkscape:window-maximized="0"
     inkscape:current-layer="svg826" />
  <g
     id="g859"
     transform="matrix(0.66666667,0,0,0.66666666,0.55555533,2.2222229)">
    <path
       id="path819"
       d="m 10.336476,23.285881 c 0.10664,0.106641 0.27906,0.106641 0.3852,0 l 0.28903,-0.289027 c 0.10614,-0.106142 0.10614,-0.279558 0,-0.385203 l -0.28903,-0.289027 c -0.10664,-0.106641 -0.27906,-0.106641 -0.3852,0 l -0.28903,0.289027 c -0.10614,0.106143 -0.10664,0.279061 0,0.385203 z"
       inkscape:connector-curvature="0"
       style="fill:#787879;fill-opacity:1;stroke-width:0.49832234" />
    <path
       id="path821"
       d="m 12.259506,16.451391 h 0.40862 c 0.15099,0 0.27308,-0.121591 0.27308,-0.272583 v -0.408126 c 0,-0.150991 -0.12209,-0.27308 -0.27308,-0.27308 h -0.40862 c -0.1505,0 -0.27258,0.122089 -0.27258,0.27308 v 0.408126 c 0,0.150992 0.12208,0.272583 0.27258,0.272583 z"
       inkscape:connector-curvature="0"
       style="fill:#787879;fill-opacity:1;stroke-width:0.49832234" />
    <path
       id="path823"
       d="m 4.940646,28.681715 c 0.10614,0.106641 0.27906,0.106641 0.3852,0 l 0.28903,-0.289525 c 0.10664,-0.106143 0.10664,-0.27906 0,-0.384705 l -0.28903,-0.289027 c -0.10664,-0.106641 -0.27956,-0.106641 -0.3852,0 l -0.28903,0.289027 c -0.10714,0.106143 -0.10714,0.279061 0,0.384705 z"
       inkscape:connector-curvature="0"
       style="fill:#787879;fill-opacity:1;stroke-width:0.49832234" />
    <path
       id="path825"
       d="m 12.259506,20.267045 h 0.40862 c 0.15099,0 0.27308,-0.121591 0.27308,-0.272583 v -0.408126 c 0,-0.150991 -0.12209,-0.272582 -0.27308,-0.272582 h -0.40862 c -0.1505,0 -0.27258,0.121591 -0.27258,0.272582 v 0.408126 c 0,0.150494 0.12208,0.272583 0.27258,0.272583 z"
       inkscape:connector-curvature="0"
       style="fill:#787879;fill-opacity:1;stroke-width:0.49832234" />
    <path
       id="path827"
       d="m 3.591686,30.030176 c 0.10614,0.107139 0.27906,0.107139 0.3852,0 l 0.28903,-0.289027 c 0.10614,-0.106143 0.10664,-0.279061 0,-0.384705 l -0.28903,-0.289027 c -0.10664,-0.106641 -0.27956,-0.106641 -0.3852,0 l -0.28903,0.289027 c -0.10614,0.106142 -0.10614,0.27906 0,0.384705 z"
       inkscape:connector-curvature="0"
       style="fill:#787879;fill-opacity:1;stroke-width:0.49832234" />
    <path
       id="path829"
       d="m 8.987516,24.63484 c 0.10664,0.106641 0.27906,0.106641 0.38521,0 l 0.28902,-0.289027 c 0.10664,-0.106641 0.10664,-0.279559 0,-0.385203 l -0.28902,-0.289027 c -0.10664,-0.106641 -0.27906,-0.106641 -0.38571,0 l -0.28902,0.289027 c -0.10614,0.106142 -0.10614,0.27906 0,0.384705 z"
       inkscape:connector-curvature="0"
       style="fill:#787879;fill-opacity:1;stroke-width:0.49832234" />
    <path
       id="path831"
       d="m 11.684936,21.936923 c 0.10714,0.106641 0.28006,0.106641 0.3857,0 l 0.28903,-0.289027 c 0.10614,-0.106143 0.10614,-0.279061 0,-0.384705 l -0.28903,-0.289525 c -0.10614,-0.106641 -0.27956,-0.106641 -0.3857,0 l -0.28903,0.288528 c -0.10614,0.106641 -0.10614,0.280058 0,0.385702 z"
       inkscape:connector-curvature="0"
       style="fill:#787879;fill-opacity:1;stroke-width:0.49832234" />
    <path
       id="path833"
       d="m 7.638556,25.983798 c 0.10615,0.106641 0.27907,0.106641 0.38521,0 l 0.28902,-0.289525 c 0.10665,-0.106143 0.10665,-0.27906 0,-0.384705 l -0.28902,-0.289027 c -0.10664,-0.106641 -0.27956,-0.106641 -0.38521,0 l -0.28902,0.289027 c -0.10614,0.106143 -0.10664,0.279061 0,0.384705 z"
       inkscape:connector-curvature="0"
       style="fill:#787879;fill-opacity:1;stroke-width:0.49832234" />
    <path
       id="path835"
       d="m 6.289606,27.332259 c 0.10614,0.107139 0.27906,0.107139 0.3852,0 l 0.28903,-0.289027 c 0.10664,-0.106143 0.10664,-0.279061 0,-0.384705 L 6.674806,26.3695 c -0.10664,-0.106641 -0.27956,-0.106641 -0.3852,0 l -0.28903,0.289027 c -0.10714,0.106142 -0.10714,0.27906 0,0.384705 z"
       inkscape:connector-curvature="0"
       style="fill:#787879;fill-opacity:1;stroke-width:0.49832234" />
    <path
       id="path837"
       d="m 12.259506,18.358969 h 0.40862 c 0.15099,0 0.27308,-0.121591 0.27308,-0.272583 V 17.67826 c 0,-0.150991 -0.12209,-0.272582 -0.27308,-0.272582 h -0.40862 c -0.1505,0 -0.27258,0.121591 -0.27258,0.272582 v 0.408126 c 0,0.150992 0.12208,0.272583 0.27258,0.272583 z"
       inkscape:connector-curvature="0"
       style="fill:#787879;fill-opacity:1;stroke-width:0.49832234" />
    <path
       id="path839"
       d="m 12.259506,14.543813 h 0.40862 c 0.15099,0 0.27308,-0.122089 0.27308,-0.272582 v -0.408625 c 0,-0.150991 -0.12209,-0.272582 -0.27308,-0.272582 h -0.40862 c -0.1505,0 -0.27258,0.121591 -0.27258,0.272582 v 0.408625 c 0,0.150493 0.12208,0.272582 0.27258,0.272582 z"
       inkscape:connector-curvature="0"
       style="fill:#787879;fill-opacity:1;stroke-width:0.49832234" />
    <path
       id="path841"
       d="m 12.259506,10.728159 h 0.40862 c 0.15099,0 0.27308,-0.121591 0.27308,-0.272084 v -0.408624 c 0,-0.1509919 -0.12209,-0.2725829 -0.27308,-0.2725829 h -0.40862 c -0.1505,0 -0.27258,0.121591 -0.27258,0.2725829 v 0.408624 c 0,0.150493 0.12208,0.272084 0.27258,0.272084 z"
       inkscape:connector-curvature="0"
       style="fill:#787879;fill-opacity:1;stroke-width:0.49832234" />
    <path
       id="path843"
       d="m 12.259506,8.8205811 h 0.40862 c 0.15099,0 0.27308,-0.1215907 0.27308,-0.2725824 V 8.1398728 c 0,-0.1509917 -0.12209,-0.2730807 -0.27308,-0.2730807 h -0.40862 c -0.1505,0 -0.27258,0.122089 -0.27258,0.2730807 v 0.4081259 c 0,0.1509917 0.12208,0.2725824 0.27258,0.2725824 z"
       inkscape:connector-curvature="0"
       style="fill:#787879;fill-opacity:1;stroke-width:0.49832234" />
    <path
       id="path845"
       d="m 12.259506,6.9130032 h 0.40862 c 0.15099,0 0.27308,-0.1215906 0.27308,-0.272084 V 6.2317966 c 0,-0.1504933 -0.12209,-0.2725823 -0.27308,-0.2725823 h -0.40862 c -0.1505,0 -0.27258,0.122089 -0.27258,0.2725823 v 0.4091226 c 0,0.1504934 0.12208,0.272084 0.27258,0.272084 z"
       inkscape:connector-curvature="0"
       style="fill:#787879;fill-opacity:1;stroke-width:0.49832234" />
    <path
       id="path847"
       d="m 12.259506,5.0054254 h 0.40862 c 0.15099,0 0.27308,-0.1220889 0.27308,-0.2725823 V 4.3242188 c 0,-0.1509916 -0.12209,-0.2725823 -0.27308,-0.2725823 h -0.40862 c -0.1505,0 -0.27258,0.1215907 -0.27258,0.2725823 v 0.4086243 c 0,0.1504934 0.12208,0.2725823 0.27258,0.2725823 z"
       inkscape:connector-curvature="0"
       style="fill:#787879;fill-opacity:1;stroke-width:0.49832234" />
    <path
       id="path849"
       d="m 27.087086,20.664208 c 0,-0.150494 -0.12209,-0.272583 -0.27258,-0.272583 h -0.40863 c -0.15049,0 -0.27308,0.122089 -0.27308,0.272583 v 0.408624 c 0,0.150493 0.12259,0.272582 0.27308,0.272582 h 0.40863 c 0.15049,0 0.27258,-0.122089 0.27258,-0.272582 z"
       inkscape:connector-curvature="0"
       style="fill:#787879;fill-opacity:1;stroke-width:0.49832234" />
    <path
       id="path851"
       d="m 23.271926,20.664208 c 0,-0.150494 -0.12209,-0.272583 -0.27308,-0.272583 h -0.40862 c -0.15,0 -0.27258,0.122089 -0.27258,0.272583 v 0.408624 c 0,0.150493 0.12258,0.272582 0.27258,0.272582 h 0.40862 c 0.15099,0 0.27308,-0.122089 0.27308,-0.272582 z"
       inkscape:connector-curvature="0"
       style="fill:#787879;fill-opacity:1;stroke-width:0.49832234" />
    <path
       id="path853"
       d="m 25.179506,20.664208 c 0,-0.150494 -0.12209,-0.272583 -0.27258,-0.272583 h -0.40912 c -0.15,0 -0.27259,0.122089 -0.27259,0.272583 v 0.408624 c 0,0.150493 0.12259,0.272582 0.27259,0.272582 h 0.40912 c 0.15049,0 0.27258,-0.122089 0.27258,-0.272582 z"
       inkscape:connector-curvature="0"
       style="fill:#787879;fill-opacity:1;stroke-width:0.49832234" />
    <path
       id="path855"
       d="m 12.779256,20.664208 v 0.408624 c 0,0.150493 0.12159,0.272582 0.27208,0.272582 h 0.40912 c 0.15,0 0.27259,-0.122089 0.27259,-0.272582 v -0.408624 c 0,-0.150494 -0.12259,-0.272583 -0.27259,-0.272583 h -0.40912 c -0.15049,4.99e-4 -0.27208,0.122588 -0.27208,0.272583 z"
       inkscape:connector-curvature="0"
       style="fill:#787879;fill-opacity:1;stroke-width:0.49832234" />
    <path
       id="path857"
       d="m 18.502486,21.07333 c 0,0.150494 0.12209,0.272583 0.27258,0.272583 h 0.40863 c 0.15049,0 0.27258,-0.122089 0.27258,-0.272583 v -0.408624 c 0,-0.150493 -0.12209,-0.272582 -0.27258,-0.272582 h -0.40863 c -0.15049,0 -0.27258,0.122089 -0.27258,0.272582 z"
       inkscape:connector-curvature="0"
       style="fill:#787879;fill-opacity:1;stroke-width:0.49832234" />
    <path
       id="path859"
       d="m 14.686336,21.07333 c 0,0.150494 0.12209,0.272583 0.27258,0.272583 h 0.40912 c 0.15099,0 0.27258,-0.122089 0.27258,-0.272583 v -0.408624 c 0,-0.150493 -0.12159,-0.272582 -0.27258,-0.272582 h -0.40912 c -0.15049,0 -0.27258,0.122089 -0.27258,0.272582 z"
       inkscape:connector-curvature="0"
       style="fill:#787879;fill-opacity:1;stroke-width:0.49832234" />
    <path
       id="path861"
       d="m 16.594406,21.07333 c 0,0.150494 0.12209,0.272583 0.27259,0.272583 h 0.40862 c 0.15049,0 0.27258,-0.122089 0.27258,-0.272583 v -0.408624 c 0,-0.150493 -0.12209,-0.272582 -0.27258,-0.272582 h -0.40862 c -0.1505,0 -0.27259,0.122089 -0.27259,0.272582 z"
       inkscape:connector-curvature="0"
       style="fill:#787879;fill-opacity:1;stroke-width:0.49832234" />
    <path
       id="path863"
       d="m 28.995156,20.664208 c 0,-0.150494 -0.12258,-0.272583 -0.27308,-0.272583 h -0.40862 c -0.15049,0 -0.27258,0.122089 -0.27258,0.272583 v 0.408624 c 0,0.150493 0.12209,0.272582 0.27258,0.272582 h 0.40862 c 0.1505,0 0.27308,-0.122089 0.27308,-0.272582 z"
       inkscape:connector-curvature="0"
       style="fill:#787879;fill-opacity:1;stroke-width:0.49832234" />
    <path
       id="path865"
       d="m 1.939246,31.666666 h 18.85502 c 0.15,0 0.3583,-0.08621 0.46494,-0.193349 l 10.21411,-10.214113 c 0.10714,-0.106641 0.19335,-0.314939 0.19335,-0.465433 V 1.9392482 c 0,-0.1504933 -0.12209,-0.2725823 -0.27258,-0.2725823 h -18.85502 c -0.15,0 -0.3588,0.08621 -0.46494,0.1928507 L 1.859516,12.073629 c -0.10614,0.106641 -0.19285,0.31494 -0.19285,0.465433 v 18.854523 c 0,0.150494 0.12259,0.273081 0.27258,0.273081 z m 19.40716,-1.901598 v -8.597057 c 0.0105,-0.0304 0.0174,-0.06129 0.0174,-0.09468 v -0.408624 c 0,-0.03339 -0.007,-0.06478 -0.0174,-0.09468 V 19.42538 h 8.15654 c 0.13405,0 0.24269,-0.108634 0.24269,-0.242184 V 4.2614302 l 0.77439,-0.7738945 c 0.10664,-0.106641 0.19235,-0.070762 0.19235,0.079732 V 20.398103 l -5e-4,0.007 c -0.0254,-0.008 -0.0528,-0.01346 -0.0812,-0.01346 h -0.40962 c -0.15099,0 -0.27259,0.122089 -0.27259,0.272583 v 0.408624 c 0,0.09817 0.0518,0.183881 0.13057,0.23172 l -8.54075,8.540248 c -0.10614,0.106641 -0.19186,0.07076 -0.19186,-0.07973 z M 3.488036,11.794569 12.193726,3.0888778 c 0.0219,0.00498 0.0438,0.00897 0.0663,0.00897 h 0.40862 c 0.15099,0 0.27308,-0.122089 0.27308,-0.2725823 V 2.6209533 h 16.82386 c 0.15099,0 0.18637,0.08621 0.0797,0.1923524 l -0.79034,0.7903393 -15.147,-0.015946 v 8.39972 h -0.96625 v -0.03189 c 0,-0.150991 -0.12209,-0.272582 -0.27308,-0.272582 h -0.40862 c -0.1505,0 -0.27259,0.121591 -0.27259,0.272582 v 0.03189 h -8.41965 c -0.15049,-4.98e-4 -0.18587,-0.08621 -0.0797,-0.19285 z m -0.595,1.146141 h 11.01492 v 6.241487 c 0,0.134049 0.10863,0.242185 0.24318,0.242185 h 6.24049 v 11.015913 c 0,0.150493 -0.12159,0.272084 -0.27258,0.272084 H 2.922936 l -0.006,-0.007 -0.28903,-0.289027 -0.007,-0.006 v -17.19706 c 0,-0.149496 0.12209,-0.272582 0.27208,-0.272582 z"
       inkscape:connector-curvature="0"
       style="fill:#787879;fill-opacity:1;stroke-width:0.49832234" />
  </g>
</svg>
