<?xml version="1.0" encoding="UTF-8" standalone="no"?>
<!-- Created with Inkscape (http://www.inkscape.org/) -->

<svg
   xmlns:dc="http://purl.org/dc/elements/1.1/"
   xmlns:cc="http://creativecommons.org/ns#"
   xmlns:rdf="http://www.w3.org/1999/02/22-rdf-syntax-ns#"
   xmlns:svg="http://www.w3.org/2000/svg"
   xmlns="http://www.w3.org/2000/svg"
   xmlns:sodipodi="http://sodipodi.sourceforge.net/DTD/sodipodi-0.dtd"
   xmlns:inkscape="http://www.inkscape.org/namespaces/inkscape"
   version="1.1"
   id="svg826"
   width="33.333332"
   height="33.333332"
   viewBox="0 0 33.333332 33.333332"
   sodipodi:docname="bottom_hover.svg"
   inkscape:version="0.92.3 (2405546, 2018-03-11)"
   inkscape:export-filename="C:\Users\johnpierson\Desktop\New folder\ViewCube\bottom_hover.png"
   inkscape:export-xdpi="96"
   inkscape:export-ydpi="96">
  <metadata
     id="metadata832">
    <rdf:RDF>
      <cc:Work
         rdf:about="">
        <dc:format>image/svg+xml</dc:format>
        <dc:type
           rdf:resource="http://purl.org/dc/dcmitype/StillImage" />
        <dc:title />
      </cc:Work>
    </rdf:RDF>
  </metadata>
  <defs
     id="defs830" />
  <sodipodi:namedview
     pagecolor="#ffffff"
     bordercolor="#666666"
     borderopacity="1"
     objecttolerance="10"
     gridtolerance="10"
     guidetolerance="10"
     inkscape:pageopacity="0"
     inkscape:pageshadow="2"
     inkscape:window-width="1921"
     inkscape:window-height="1018"
     id="namedview828"
     showgrid="false"
     inkscape:zoom="5.0063162"
     inkscape:cx="-0.53083786"
     inkscape:cy="60.912778"
     inkscape:window-x="951"
     inkscape:window-y="0"
     inkscape:window-maximized="0"
     inkscape:current-layer="svg826" />
  <g
     id="g1132"
     transform="matrix(0.49833059,0,0,0.49832231,42.199875,27.925893)"
     style="fill:#cdcccc;fill-opacity:1">
    <path
       id="path994"
       d="m -60.08199,-19.198267 h 0.82 c 0.303,0 0.547,-0.244 0.547,-0.547 v -0.819 c 0,-0.303 -0.244,-0.547 -0.547,-0.547 h -0.82 c -0.302,0 -0.546,0.244 -0.546,0.547 v 0.819 c 0,0.303 0.244,0.547 0.546,0.547 z"
       inkscape:connector-curvature="0"
       style="fill:#cdcccc;fill-opacity:1" />
    <path
       id="path996"
       d="m -60.08199,-23.026267 h 0.82 c 0.303,0 0.547,-0.244 0.547,-0.547 v -0.819 c 0,-0.303 -0.244,-0.548 -0.547,-0.548 h -0.82 c -0.302,0 -0.546,0.245 -0.546,0.548 v 0.819 c 0,0.303 0.244,0.547 0.546,0.547 z"
       inkscape:connector-curvature="0"
       style="fill:#cdcccc;fill-opacity:1" />
    <path
       id="path998"
       d="m -60.08199,-42.167267 h 0.82 c 0.303,0 0.547,-0.244 0.547,-0.546 v -0.821 c 0,-0.302 -0.244,-0.547 -0.547,-0.547 h -0.82 c -0.302,0 -0.546,0.245 -0.546,0.547 v 0.821 c 0,0.302 0.244,0.546 0.546,0.546 z"
       inkscape:connector-curvature="0"
       style="fill:#cdcccc;fill-opacity:1" />
    <path
       id="path1000"
       d="m -60.08199,-26.854267 h 0.82 c 0.303,0 0.547,-0.245 0.547,-0.547 v -0.82 c 0,-0.303 -0.244,-0.547 -0.547,-0.547 h -0.82 c -0.302,0 -0.546,0.244 -0.546,0.547 v 0.82 c 0,0.302 0.244,0.547 0.546,0.547 z"
       inkscape:connector-curvature="0"
       style="fill:#cdcccc;fill-opacity:1" />
    <path
       id="path1002"
       d="m -60.08199,-34.511267 h 0.82 c 0.303,0 0.547,-0.244 0.547,-0.546 v -0.82 c 0,-0.303 -0.244,-0.547 -0.547,-0.547 h -0.82 c -0.302,0 -0.546,0.244 -0.546,0.547 v 0.82 c 0,0.302 0.244,0.546 0.546,0.546 z"
       inkscape:connector-curvature="0"
       style="fill:#cdcccc;fill-opacity:1" />
    <path
       id="path1004"
       d="m -60.08199,-38.339267 h 0.82 c 0.303,0 0.547,-0.244 0.547,-0.547 v -0.819 c 0,-0.303 -0.244,-0.548 -0.547,-0.548 h -0.82 c -0.302,0 -0.546,0.245 -0.546,0.548 v 0.819 c 0,0.303 0.244,0.547 0.546,0.547 z"
       inkscape:connector-curvature="0"
       style="fill:#cdcccc;fill-opacity:1" />
    <path
       id="path1006"
       d="m -60.08199,-15.369267 h 0.82 c 0.303,0 0.547,-0.244 0.547,-0.547 v -0.819 c 0,-0.303 -0.244,-0.547 -0.547,-0.547 h -0.82 c -0.302,0 -0.546,0.244 -0.546,0.547 v 0.819 c 0,0.302 0.244,0.547 0.546,0.547 z"
       inkscape:connector-curvature="0"
       style="fill:#cdcccc;fill-opacity:1" />
    <path
       id="path1008"
       d="m -74.76999,1.516733 c 0.214,0.214 0.561,0.214 0.773,0 l 0.58,-0.581 c 0.214,-0.213 0.214,-0.56 0,-0.772 l -0.581,-0.58 c -0.213,-0.214 -0.56,-0.214 -0.772,0 l -0.58,0.58 c -0.214,0.213 -0.214,0.56 0,0.772 z"
       inkscape:connector-curvature="0"
       style="fill:#cdcccc;fill-opacity:1" />
    <path
       id="path1010"
       d="m -72.06299,-1.191267 c 0.214,0.215 0.561,0.215 0.773,0 l 0.58,-0.58 c 0.214,-0.213 0.214,-0.56 0,-0.772 l -0.58,-0.58 c -0.214,-0.214 -0.561,-0.214 -0.773,0 l -0.58,0.58 c -0.214,0.213 -0.214,0.56 0,0.772 z"
       inkscape:connector-curvature="0"
       style="fill:#cdcccc;fill-opacity:1" />
    <path
       id="path1012"
       d="m -77.47699,4.222733 c 0.214,0.215 0.56,0.215 0.772,0 l 0.581,-0.58 c 0.214,-0.213 0.214,-0.56 0,-0.772 l -0.581,-0.58 c -0.213,-0.214 -0.559,-0.214 -0.772,0 l -0.58,0.58 c -0.214,0.213 -0.214,0.56 0,0.772 z"
       inkscape:connector-curvature="0"
       style="fill:#cdcccc;fill-opacity:1" />
    <path
       id="path1014"
       d="m -60.08199,-45.995267 h 0.82 c 0.303,0 0.547,-0.245 0.547,-0.547 v -0.82 c 0,-0.303 -0.244,-0.547 -0.547,-0.547 h -0.82 c -0.302,0 -0.546,0.244 -0.546,0.547 v 0.82 c 0,0.302 0.244,0.547 0.546,0.547 z"
       inkscape:connector-curvature="0"
       style="fill:#cdcccc;fill-opacity:1" />
    <path
       id="path1016"
       d="m -63.94199,-9.311267 c 0.214,0.214 0.56,0.214 0.773,0 l 0.58,-0.58 c 0.214,-0.213 0.214,-0.561 0,-0.773 l -0.58,-0.58 c -0.214,-0.214 -0.56,-0.214 -0.773,0 l -0.58,0.58 c -0.213,0.213 -0.213,0.56 0,0.773 z"
       inkscape:connector-curvature="0"
       style="fill:#cdcccc;fill-opacity:1" />
    <path
       id="path1018"
       d="m -69.35599,-3.897267 c 0.213,0.214 0.56,0.214 0.773,0 l 0.58,-0.581 c 0.214,-0.213 0.214,-0.56 0,-0.772 l -0.58,-0.58 c -0.214,-0.214 -0.561,-0.214 -0.773,0 l -0.58,0.58 c -0.213,0.213 -0.213,0.56 0,0.772 z"
       inkscape:connector-curvature="0"
       style="fill:#cdcccc;fill-opacity:1" />
    <path
       id="path1020"
       d="m -61.23499,-12.018267 c 0.214,0.214 0.56,0.214 0.773,0 l 0.58,-0.58 c 0.214,-0.213 0.214,-0.56 0,-0.772 l -0.58,-0.581 c -0.214,-0.214 -0.56,-0.214 -0.773,0 l -0.58,0.579 c -0.214,0.214 -0.214,0.562 0,0.774 z"
       inkscape:connector-curvature="0"
       style="fill:#cdcccc;fill-opacity:1" />
    <path
       id="path1022"
       d="m -66.64899,-6.604267 c 0.213,0.214 0.56,0.214 0.773,0 l 0.58,-0.58 c 0.214,-0.214 0.214,-0.561 0,-0.773 l -0.58,-0.58 c -0.214,-0.214 -0.561,-0.214 -0.773,0 l -0.58,0.58 c -0.215,0.213 -0.215,0.56 0,0.772 z"
       inkscape:connector-curvature="0"
       style="fill:#cdcccc;fill-opacity:1" />
    <path
       id="path1024"
       d="m -47.55499,-13.751267 c 0,0.302 0.245,0.547 0.547,0.547 h 0.82 c 0.303,0 0.547,-0.245 0.547,-0.547 v -0.82 c 0,-0.302 -0.244,-0.547 -0.547,-0.547 h -0.82 c -0.302,0 -0.547,0.245 -0.547,0.547 z"
       inkscape:connector-curvature="0"
       style="fill:#cdcccc;fill-opacity:1" />
    <path
       id="path1026"
       d="m -30.32699,-14.572267 c 0,-0.302 -0.244,-0.547 -0.547,-0.547 h -0.82 c -0.302,0 -0.548,0.245 -0.548,0.547 v 0.82 c 0,0.302 0.246,0.547 0.548,0.547 h 0.82 c 0.303,0 0.547,-0.245 0.547,-0.547 z"
       inkscape:connector-curvature="0"
       style="fill:#cdcccc;fill-opacity:1" />
    <path
       id="path1028"
       d="m -26.49899,-14.572267 c 0,-0.302 -0.245,-0.547 -0.547,-0.547 h -0.82 c -0.302,0 -0.546,0.245 -0.546,0.547 v 0.82 c 0,0.302 0.244,0.547 0.546,0.547 h 0.82 c 0.302,0 0.547,-0.245 0.547,-0.547 z"
       inkscape:connector-curvature="0"
       style="fill:#cdcccc;fill-opacity:1" />
    <path
       id="path1030"
       d="m -51.38299,-13.751267 c 0,0.302 0.244,0.547 0.547,0.547 h 0.82 c 0.303,0 0.547,-0.245 0.547,-0.547 v -0.82 c 0,-0.302 -0.244,-0.547 -0.547,-0.547 h -0.82 c -0.303,0 -0.547,0.245 -0.547,0.547 z"
       inkscape:connector-curvature="0"
       style="fill:#cdcccc;fill-opacity:1" />
    <path
       id="path1032"
       d="m -37.98499,-14.572267 c 0,-0.302 -0.244,-0.547 -0.547,-0.547 h -0.82 c -0.302,0 -0.547,0.245 -0.547,0.547 v 0.82 c 0,0.302 0.245,0.547 0.547,0.547 h 0.82 c 0.303,0 0.547,-0.245 0.547,-0.547 z"
       inkscape:connector-curvature="0"
       style="fill:#cdcccc;fill-opacity:1" />
    <path
       id="path1034"
       d="m -59.03899,-14.572267 v 0.82 c 0,0.302 0.244,0.547 0.547,0.547 h 0.819 c 0.303,0 0.547,-0.245 0.547,-0.547 v -0.82 c 0,-0.302 -0.244,-0.547 -0.547,-0.547 h -0.819 c -0.303,0.001 -0.547,0.246 -0.547,0.547 z"
       inkscape:connector-curvature="0"
       style="fill:#cdcccc;fill-opacity:1" />
    <path
       id="path1036"
       d="m -34.15499,-14.572267 c 0,-0.302 -0.245,-0.547 -0.547,-0.547 h -0.821 c -0.301,0 -0.546,0.245 -0.546,0.547 v 0.82 c 0,0.302 0.245,0.547 0.546,0.547 h 0.821 c 0.302,0 0.547,-0.245 0.547,-0.547 z"
       inkscape:connector-curvature="0"
       style="fill:#cdcccc;fill-opacity:1" />
    <path
       id="path1038"
       d="m -55.21099,-13.751267 c 0,0.302 0.244,0.547 0.546,0.547 h 0.821 c 0.302,0 0.547,-0.245 0.547,-0.547 v -0.82 c 0,-0.302 -0.245,-0.547 -0.547,-0.547 h -0.821 c -0.302,0 -0.546,0.245 -0.546,0.547 z"
       inkscape:connector-curvature="0"
       style="fill:#cdcccc;fill-opacity:1" />
    <path
       id="path1040"
       d="m -80.79199,7.506733 h 37.836 c 0.303,0 0.72,-0.173 0.935,-0.388 l 20.497,-20.497 c 0.214,-0.214 0.387,-0.632 0.387,-0.934 v -37.836 c 0,-0.302 -0.245,-0.547 -0.547,-0.547 h -37.837 c -0.303,0 -0.721,0.173 -0.934,0.387 l -20.497,20.497 c -0.214,0.214 -0.386,0.632 -0.386,0.934 v 37.836 c 0,0.302 0.244,0.548 0.546,0.548 z m 38.944,-3.816 v -1.651 l 13.722,-13.721 c 0.186,-0.187 0.123,-0.338 -0.141,-0.338 h -13.581 v -1.542 c 0.021,-0.061 0.035,-0.123 0.035,-0.19 v -0.82 c 0,-0.067 -0.014,-0.13 -0.035,-0.19 v -15.323 c 0,-0.302 0.173,-0.721 0.387,-0.934 l 18.022,-18.022 c 0.213,-0.214 0.387,-0.142 0.387,0.16 v 33.775 l -0.001,0.014 c -0.053,-0.016 -0.106,-0.027 -0.165,-0.027 h -0.82 c -0.302,0 -0.547,0.245 -0.547,0.547 v 0.82 c 0,0.197 0.105,0.369 0.262,0.465 l -17.138,17.137 c -0.214,0.214 -0.387,0.142 -0.387,-0.16 z m -35.837,-36.062 17.471,-17.47 c 0.043,0.01 0.086,0.018 0.132,0.018 h 0.82 c 0.303,0 0.547,-0.245 0.547,-0.547 v -0.41 h 33.763 c 0.302,0 0.374,0.173 0.16,0.386 l -18.024,18.023 c -0.213,0.214 -0.631,0.387 -0.934,0.387 h -14.965 v -0.064 c 0,-0.303 -0.244,-0.547 -0.547,-0.547 h -0.82 c -0.302,0 -0.546,0.244 -0.546,0.547 v 0.064 h -16.897 c -0.301,-0.001 -0.373,-0.173 -0.16,-0.387 z m -1.192,2.3 h 34.568 c 0.302,0 0.547,0.246 0.547,0.547 v 17.505 h -14.022 c -0.264,0 -0.629,0.151 -0.814,0.338 l -15.751,15.75 c -0.188,0.187 -0.124,0.338 0.14,0.338 h 29.517 c 0.265,0 0.63,-0.151 0.816,-0.338 l 0.115,-0.116 v 1.093 c 0,0.302 -0.245,0.546 -0.547,0.546 h -34.51 l -0.012,-0.014 -0.58,-0.58 -0.015,-0.012 v -34.51 c 0,-0.3 0.246,-0.547 0.548,-0.547 z"
       inkscape:connector-curvature="0"
       style="fill:#cdcccc;fill-opacity:1" />
  </g>
</svg>
