<?xml version="1.0" encoding="UTF-8" standalone="no"?>
<!-- Created with Inkscape (http://www.inkscape.org/) -->

<svg
   xmlns:dc="http://purl.org/dc/elements/1.1/"
   xmlns:cc="http://creativecommons.org/ns#"
   xmlns:rdf="http://www.w3.org/1999/02/22-rdf-syntax-ns#"
   xmlns:svg="http://www.w3.org/2000/svg"
   xmlns="http://www.w3.org/2000/svg"
   xmlns:sodipodi="http://sodipodi.sourceforge.net/DTD/sodipodi-0.dtd"
   xmlns:inkscape="http://www.inkscape.org/namespaces/inkscape"
   version="1.1"
   id="svg826"
   width="25"
   height="25"
   viewBox="0 0 25 25"
   sodipodi:docname="front_hover.svg"
   inkscape:version="0.92.3 (2405546, 2018-03-11)"
   inkscape:export-filename="C:\Users\johnpierson\Documents\Repos\MonocleForDynamo\src\Icons\StandardViews\front_hover.png"
   inkscape:export-xdpi="96"
   inkscape:export-ydpi="96">
  <metadata
     id="metadata832">
    <rdf:RDF>
      <cc:Work
         rdf:about="">
        <dc:format>image/svg+xml</dc:format>
        <dc:type
           rdf:resource="http://purl.org/dc/dcmitype/StillImage" />
        <dc:title></dc:title>
      </cc:Work>
    </rdf:RDF>
  </metadata>
  <defs
     id="defs830" />
  <sodipodi:namedview
     pagecolor="#ffffff"
     bordercolor="#666666"
     borderopacity="1"
     objecttolerance="10"
     gridtolerance="10"
     guidetolerance="10"
     inkscape:pageopacity="0"
     inkscape:pageshadow="2"
     inkscape:window-width="1921"
     inkscape:window-height="1018"
     id="namedview828"
     showgrid="false"
     inkscape:zoom="5.0063162"
     inkscape:cx="33.925635"
     inkscape:cy="20.763496"
     inkscape:window-x="951"
     inkscape:window-y="0"
     inkscape:window-maximized="0"
     inkscape:current-layer="svg826" />
  <g
     id="g1256"
     transform="matrix(0.3322204,0,0,0.33221488,30.173979,28.667095)"
     style="fill:#cdcccc;fill-opacity:1">
    <path
       id="path1188"
       d="m -62.04306,-72.065571 h 0.82 c 0.302,0 0.547,-0.245 0.547,-0.547 v -0.82 c 0,-0.303 -0.245,-0.547 -0.547,-0.547 h -0.82 c -0.302,0 -0.547,0.244 -0.547,0.547 v 0.82 c 0,0.302 0.245,0.547 0.547,0.547 z"
       inkscape:connector-curvature="0"
       style="fill:#cdcccc;fill-opacity:1" />
    <path
       id="path1190"
       d="m -62.04306,-64.409571 h 0.82 c 0.302,0 0.547,-0.244 0.547,-0.547 v -0.819 c 0,-0.303 -0.245,-0.548 -0.547,-0.548 h -0.82 c -0.302,0 -0.547,0.245 -0.547,0.548 v 0.819 c 0,0.303 0.245,0.547 0.547,0.547 z"
       inkscape:connector-curvature="0"
       style="fill:#cdcccc;fill-opacity:1" />
    <path
       id="path1192"
       d="m -62.04306,-60.581571 h 0.82 c 0.302,0 0.547,-0.244 0.547,-0.546 v -0.82 c 0,-0.303 -0.245,-0.547 -0.547,-0.547 h -0.82 c -0.302,0 -0.547,0.244 -0.547,0.547 v 0.82 c 0,0.302 0.245,0.546 0.547,0.546 z"
       inkscape:connector-curvature="0"
       style="fill:#cdcccc;fill-opacity:1" />
    <path
       id="path1194"
       d="m -62.04306,-68.237571 h 0.82 c 0.302,0 0.547,-0.244 0.547,-0.546 v -0.821 c 0,-0.302 -0.245,-0.547 -0.547,-0.547 h -0.82 c -0.302,0 -0.547,0.245 -0.547,0.547 v 0.821 c 0,0.302 0.245,0.546 0.547,0.546 z"
       inkscape:connector-curvature="0"
       style="fill:#cdcccc;fill-opacity:1" />
    <path
       id="path1196"
       d="m -36.11706,-40.642571 c 0,-0.302 -0.244,-0.547 -0.547,-0.547 h -0.82 c -0.302,0 -0.546,0.245 -0.546,0.547 v 0.82 c 0,0.302 0.244,0.547 0.546,0.547 h 0.82 c 0.303,0 0.547,-0.245 0.547,-0.547 z"
       inkscape:connector-curvature="0"
       style="fill:#cdcccc;fill-opacity:1" />
    <path
       id="path1198"
       d="m -39.94606,-40.642571 c 0,-0.302 -0.245,-0.547 -0.547,-0.547 h -0.82 c -0.302,0 -0.547,0.245 -0.547,0.547 v 0.82 c 0,0.302 0.245,0.547 0.547,0.547 h 0.82 c 0.302,0 0.547,-0.245 0.547,-0.547 z"
       inkscape:connector-curvature="0"
       style="fill:#cdcccc;fill-opacity:1" />
    <path
       id="path1200"
       d="m -32.28906,-40.642571 c 0,-0.302 -0.245,-0.547 -0.547,-0.547 h -0.819 c -0.303,0 -0.547,0.245 -0.547,0.547 v 0.82 c 0,0.302 0.244,0.547 0.547,0.547 h 0.819 c 0.302,0 0.547,-0.245 0.547,-0.547 z"
       inkscape:connector-curvature="0"
       style="fill:#cdcccc;fill-opacity:1" />
    <path
       id="path1202"
       d="m -28.46006,-40.642571 c 0,-0.302 -0.246,-0.547 -0.548,-0.547 h -0.82 c -0.302,0 -0.546,0.245 -0.546,0.547 v 0.82 c 0,0.302 0.244,0.547 0.546,0.547 h 0.82 c 0.302,0 0.548,-0.245 0.548,-0.547 z"
       inkscape:connector-curvature="0"
       style="fill:#cdcccc;fill-opacity:1" />
    <path
       id="path1204"
       d="m -47.09006,-54.295571 c 0,-0.265 -0.215,-0.479 -0.479,-0.479 h -13.402 c -0.076,-0.04 -0.161,-0.064 -0.252,-0.064 h -0.82 c -0.091,0 -0.175,0.024 -0.252,0.064 h -17.245 c -0.265,0 -0.479,0.214 -0.479,0.479 v 31.097 c -0.211,0.213 -0.211,0.558 0,0.771 v 0.103 c 0,0.266 0.215,0.479 0.479,0.479 h 0.104 c 0.213,0.212 0.558,0.212 0.771,0 h 31.095 c 0.265,0 0.479,-0.214 0.479,-0.479 v -31.971 z"
       inkscape:connector-curvature="0"
       style="fill:#cdcccc;fill-opacity:1" />
    <path
       id="path1206"
       d="m -82.75306,-18.563571 h 37.836 c 0.303,0 0.721,-0.173 0.934,-0.388 l 20.498,-20.497 c 0.213,-0.214 0.386,-0.632 0.386,-0.934 v -37.836 c 0,-0.302 -0.244,-0.547 -0.546,-0.547 h -37.837 c -0.303,0 -0.723,0.17 -0.939,0.381 l -20.487,19.948 c -0.216,0.211 -0.392,0.627 -0.392,0.929 v 38.396 c 0,0.302 0.244,0.548 0.547,0.548 z m 36.482,-1.915 h -34.51 l -0.012,-0.014 -0.579,-0.58 -0.015,-0.012 v -34.51 c 0,-0.301 0.245,-0.547 0.547,-0.547 h 34.568 c 0.302,0 0.547,0.246 0.547,0.547 v 34.57 c 10e-4,0.301 -0.244,0.546 -0.546,0.546 z m 2.461,-1.901 v -17.252 c 0.022,-0.061 0.036,-0.123 0.036,-0.19 v -0.82 c 0,-0.067 -0.014,-0.13 -0.036,-0.19 v -15.323 c 0,-0.302 0.174,-0.721 0.387,-0.934 l 18.022,-18.022 c 0.215,-0.214 0.388,-0.142 0.388,0.16 v 33.775 l -0.002,0.014 c -0.052,-0.016 -0.106,-0.027 -0.164,-0.027 h -0.82 c -0.303,0 -0.547,0.245 -0.547,0.547 v 0.82 c 0,0.197 0.104,0.369 0.261,0.465 l -17.138,17.137 c -0.213,0.214 -0.387,0.142 -0.387,-0.16 z m -36.264,-36.058 17.881,-17.479 c 0.048,0.013 0.098,0.022 0.149,0.022 h 0.82 c 0.302,0 0.547,-0.245 0.547,-0.547 v -0.41 h 33.762 c 0.303,0 0.374,0.173 0.161,0.386 l -18.023,18.024 c -0.214,0.214 -0.632,0.387 -0.934,0.387 h -14.965 v -0.064 c 0,-0.303 -0.245,-0.547 -0.547,-0.547 h -0.82 c -0.302,0 -0.547,0.244 -0.547,0.547 v 0.064 h -17.327 c -0.301,-10e-4 -0.371,-0.172 -0.157,-0.383 z"
       inkscape:connector-curvature="0"
       style="fill:#cdcccc;fill-opacity:1" />
  </g>
</svg>
