<?xml version="1.0" encoding="UTF-8" standalone="no"?>
<!-- Created with Inkscape (http://www.inkscape.org/) -->

<svg
   xmlns:dc="http://purl.org/dc/elements/1.1/"
   xmlns:cc="http://creativecommons.org/ns#"
   xmlns:rdf="http://www.w3.org/1999/02/22-rdf-syntax-ns#"
   xmlns:svg="http://www.w3.org/2000/svg"
   xmlns="http://www.w3.org/2000/svg"
   xmlns:sodipodi="http://sodipodi.sourceforge.net/DTD/sodipodi-0.dtd"
   xmlns:inkscape="http://www.inkscape.org/namespaces/inkscape"
   version="1.1"
   id="svg826"
   width="25"
   height="25"
   viewBox="0 0 25 25"
   sodipodi:docname="left_normal.svg"
   inkscape:version="0.92.3 (2405546, 2018-03-11)"
   inkscape:export-filename="C:\Users\johnpierson\Documents\Repos\MonocleForDynamo\src\Icons\StandardViews\left_normal.png"
   inkscape:export-xdpi="96"
   inkscape:export-ydpi="96">
  <metadata
     id="metadata832">
    <rdf:RDF>
      <cc:Work
         rdf:about="">
        <dc:format>image/svg+xml</dc:format>
        <dc:type
           rdf:resource="http://purl.org/dc/dcmitype/StillImage" />
        <dc:title></dc:title>
      </cc:Work>
    </rdf:RDF>
  </metadata>
  <defs
     id="defs830" />
  <sodipodi:namedview
     pagecolor="#ffffff"
     bordercolor="#666666"
     borderopacity="1"
     objecttolerance="10"
     gridtolerance="10"
     guidetolerance="10"
     inkscape:pageopacity="0"
     inkscape:pageshadow="2"
     inkscape:window-width="1921"
     inkscape:window-height="1018"
     id="namedview828"
     showgrid="false"
     inkscape:zoom="5.0063162"
     inkscape:cx="63.288543"
     inkscape:cy="27.554917"
     inkscape:window-x="951"
     inkscape:window-y="0"
     inkscape:window-maximized="0"
     inkscape:current-layer="svg826" />
  <g
     id="g1450"
     transform="matrix(0.33221488,0,0,0.33221488,15.243043,33.046799)"
     style="fill:#787879;fill-opacity:1">
    <path
       id="path1312"
       d="m -26.372835,-43.15092 c 0.213,0.214 0.56,0.214 0.772,0 l 0.58,-0.581 c 0.214,-0.213 0.214,-0.56 0,-0.772 l -0.58,-0.58 c -0.213,-0.214 -0.56,-0.214 -0.772,0 l -0.581,0.58 c -0.214,0.213 -0.214,0.56 0,0.772 z"
       inkscape:connector-curvature="0"
       style="fill:#787879;fill-opacity:1" />
    <path
       id="path1314"
       d="m -23.665835,-45.85792 c 0.213,0.214 0.56,0.214 0.772,0 l 0.58,-0.58 c 0.214,-0.214 0.214,-0.561 0,-0.773 l -0.58,-0.58 c -0.213,-0.214 -0.56,-0.214 -0.773,0 l -0.58,0.58 c -0.214,0.213 -0.214,0.56 0,0.772 z"
       inkscape:connector-curvature="0"
       style="fill:#787879;fill-opacity:1" />
    <path
       id="path1316"
       d="m -17.099835,-73.76492 h 0.82 c 0.303,0 0.547,-0.244 0.547,-0.546 v -0.82 c 0,-0.303 -0.244,-0.547 -0.547,-0.547 h -0.82 c -0.302,0 -0.548,0.244 -0.548,0.547 v 0.82 c 0,0.302 0.246,0.546 0.548,0.546 z"
       inkscape:connector-curvature="0"
       style="fill:#787879;fill-opacity:1" />
    <path
       id="path1318"
       d="m -20.958835,-48.56492 c 0.213,0.214 0.56,0.214 0.772,0 l 0.58,-0.58 c 0.214,-0.213 0.214,-0.561 0,-0.773 l -0.58,-0.58 c -0.213,-0.214 -0.561,-0.214 -0.772,0 l -0.581,0.58 c -0.214,0.213 -0.214,0.56 0,0.773 z"
       inkscape:connector-curvature="0"
       style="fill:#787879;fill-opacity:1" />
    <path
       id="path1320"
       d="m -17.099835,-85.24892 h 0.82 c 0.303,0 0.547,-0.245 0.547,-0.547 v -0.82 c 0,-0.303 -0.244,-0.547 -0.547,-0.547 h -0.82 c -0.302,0 -0.548,0.244 -0.548,0.547 v 0.82 c 0,0.302 0.246,0.547 0.548,0.547 z"
       inkscape:connector-curvature="0"
       style="fill:#787879;fill-opacity:1" />
    <path
       id="path1322"
       d="m -17.099835,-77.59292 h 0.82 c 0.303,0 0.547,-0.244 0.547,-0.547 v -0.819 c 0,-0.303 -0.244,-0.548 -0.547,-0.548 h -0.82 c -0.302,0 -0.548,0.245 -0.548,0.548 v 0.819 c 0,0.303 0.246,0.547 0.548,0.547 z"
       inkscape:connector-curvature="0"
       style="fill:#787879;fill-opacity:1" />
    <path
       id="path1324"
       d="m -17.099835,-81.42092 h 0.82 c 0.303,0 0.547,-0.244 0.547,-0.546 v -0.821 c 0,-0.302 -0.244,-0.547 -0.547,-0.547 h -0.82 c -0.302,0 -0.548,0.245 -0.548,0.547 v 0.821 c 0,0.302 0.246,0.546 0.548,0.546 z"
       inkscape:connector-curvature="0"
       style="fill:#787879;fill-opacity:1" />
    <path
       id="path1326"
       d="m -29.080835,-40.44492 c 0.214,0.215 0.561,0.215 0.773,0 l 0.581,-0.58 c 0.213,-0.213 0.213,-0.56 0,-0.772 l -0.581,-0.58 c -0.213,-0.214 -0.56,-0.214 -0.773,0 l -0.579,0.58 c -0.215,0.213 -0.215,0.56 0,0.772 z"
       inkscape:connector-curvature="0"
       style="fill:#787879;fill-opacity:1" />
    <path
       id="path1328"
       d="m -17.099835,-58.45192 h 0.82 c 0.303,0 0.547,-0.244 0.547,-0.547 v -0.819 c 0,-0.303 -0.244,-0.547 -0.547,-0.547 h -0.82 c -0.302,0 -0.548,0.244 -0.548,0.547 v 0.819 c 0,0.303 0.246,0.547 0.548,0.547 z"
       inkscape:connector-curvature="0"
       style="fill:#787879;fill-opacity:1" />
    <path
       id="path1330"
       d="m -17.099835,-54.62292 h 0.82 c 0.303,0 0.547,-0.244 0.547,-0.547 v -0.819 c 0,-0.303 -0.244,-0.547 -0.547,-0.547 h -0.82 c -0.302,0 -0.548,0.244 -0.548,0.547 v 0.819 c 0,0.302 0.246,0.547 0.548,0.547 z"
       inkscape:connector-curvature="0"
       style="fill:#787879;fill-opacity:1" />
    <path
       id="path1332"
       d="m -17.099835,-62.27992 h 0.82 c 0.303,0 0.547,-0.244 0.547,-0.547 v -0.819 c 0,-0.303 -0.244,-0.548 -0.547,-0.548 h -0.82 c -0.302,0 -0.548,0.245 -0.548,0.548 v 0.819 c 0,0.303 0.246,0.547 0.548,0.547 z"
       inkscape:connector-curvature="0"
       style="fill:#787879;fill-opacity:1" />
    <path
       id="path1334"
       d="m -34.494835,-35.03092 c 0.214,0.215 0.561,0.215 0.773,0 l 0.58,-0.58 c 0.213,-0.213 0.213,-0.56 0,-0.772 l -0.58,-0.58 c -0.213,-0.214 -0.56,-0.214 -0.773,0 l -0.58,0.58 c -0.213,0.213 -0.213,0.56 0,0.772 z"
       inkscape:connector-curvature="0"
       style="fill:#787879;fill-opacity:1" />
    <path
       id="path1336"
       d="m -18.251835,-51.27192 c 0.213,0.214 0.56,0.214 0.772,0 l 0.58,-0.58 c 0.214,-0.213 0.214,-0.56 0,-0.772 l -0.581,-0.581 c -0.213,-0.214 -0.559,-0.214 -0.772,0 l -0.58,0.579 c -0.214,0.214 -0.214,0.562 0,0.774 z"
       inkscape:connector-curvature="0"
       style="fill:#787879;fill-opacity:1" />
    <path
       id="path1338"
       d="m -17.099835,-66.10792 h 0.82 c 0.303,0 0.547,-0.245 0.547,-0.547 v -0.82 c 0,-0.303 -0.244,-0.547 -0.547,-0.547 h -0.82 c -0.302,0 -0.548,0.244 -0.548,0.547 v 0.82 c 0,0.302 0.246,0.547 0.548,0.547 z"
       inkscape:connector-curvature="0"
       style="fill:#787879;fill-opacity:1" />
    <path
       id="path1340"
       d="m -31.787835,-37.73692 c 0.214,0.214 0.561,0.214 0.773,0 l 0.58,-0.581 c 0.213,-0.213 0.213,-0.56 0,-0.772 l -0.58,-0.58 c -0.213,-0.214 -0.56,-0.214 -0.773,0 l -0.58,0.58 c -0.214,0.213 -0.214,0.56 0,0.772 z"
       inkscape:connector-curvature="0"
       style="fill:#787879;fill-opacity:1" />
    <path
       id="path1342"
       d="m -11.408835,-53.00492 c 0,0.302 0.244,0.547 0.547,0.547 h 0.82 c 0.302,0 0.547,-0.245 0.547,-0.547 v -0.82 c 0,-0.302 -0.245,-0.547 -0.547,-0.547 h -0.82 c -0.303,0 -0.547,0.245 -0.547,0.547 z"
       inkscape:connector-curvature="0"
       style="fill:#787879;fill-opacity:1" />
    <path
       id="path1344"
       d="m -14.690835,-52.45792 h 0.82 c 0.302,0 0.547,-0.245 0.547,-0.547 v -0.82 c 0,-0.302 -0.245,-0.547 -0.547,-0.547 h -0.82 c -0.303,0 -0.547,0.245 -0.547,0.547 v 0.82 c 0.001,0.302 0.245,0.547 0.547,0.547 z"
       inkscape:connector-curvature="0"
       style="fill:#787879;fill-opacity:1" />
    <path
       id="path1346"
       d="m -7.580835,-53.00492 c 0,0.302 0.244,0.547 0.547,0.547 h 0.821 c 0.302,0 0.547,-0.245 0.547,-0.547 v -0.82 c 0,-0.302 -0.245,-0.547 -0.547,-0.547 h -0.821 c -0.303,0 -0.547,0.245 -0.547,0.547 z"
       inkscape:connector-curvature="0"
       style="fill:#787879;fill-opacity:1" />
    <path
       id="path1348"
       d="m 9.646165,-53.82592 c 0,-0.302 -0.245,-0.547 -0.546,-0.547 h -0.821 c -0.303,0 -0.547,0.245 -0.547,0.547 v 0.82 c 0,0.302 0.244,0.547 0.547,0.547 h 0.821 c 0.301,0 0.546,-0.245 0.546,-0.547 z"
       inkscape:connector-curvature="0"
       style="fill:#787879;fill-opacity:1" />
    <path
       id="path1350"
       d="m 13.474165,-53.82592 c 0,-0.302 -0.244,-0.547 -0.547,-0.547 h -0.819 c -0.303,0 -0.548,0.245 -0.548,0.547 v 0.82 c 0,0.302 0.245,0.547 0.548,0.547 h 0.819 c 0.303,0 0.547,-0.245 0.547,-0.547 z"
       inkscape:connector-curvature="0"
       style="fill:#787879;fill-opacity:1" />
    <path
       id="path1352"
       d="m 5.817165,-53.82592 c 0,-0.302 -0.244,-0.547 -0.547,-0.547 h -0.819 c -0.303,0 -0.547,0.245 -0.547,0.547 v 0.82 c 0,0.302 0.244,0.547 0.547,0.547 h 0.819 c 0.303,0 0.547,-0.245 0.547,-0.547 z"
       inkscape:connector-curvature="0"
       style="fill:#787879;fill-opacity:1" />
    <path
       id="path1354"
       d="m 17.303165,-53.82592 c 0,-0.302 -0.245,-0.547 -0.546,-0.547 h -0.82 c -0.303,0 -0.547,0.245 -0.547,0.547 v 0.82 c 0,0.302 0.244,0.547 0.547,0.547 h 0.82 c 0.301,0 0.546,-0.245 0.546,-0.547 z"
       inkscape:connector-curvature="0"
       style="fill:#787879;fill-opacity:1" />
    <path
       id="path1356"
       d="m -3.752835,-53.00492 c 0,0.302 0.245,0.547 0.548,0.547 h 0.82 c 0.302,0 0.546,-0.245 0.546,-0.547 v -0.82 c 0,-0.302 -0.244,-0.547 -0.546,-0.547 h -0.82 c -0.303,0 -0.548,0.245 -0.548,0.547 z"
       inkscape:connector-curvature="0"
       style="fill:#787879;fill-opacity:1" />
    <path
       id="path1358"
       d="m -37.809835,-31.74692 h 37.836 c 0.302,0 0.72,-0.173 0.934,-0.388 l 20.497,-20.497 c 0.214,-0.214 0.387,-0.632 0.387,-0.934 v -37.836 c 0,-0.302 -0.245,-0.547 -0.547,-0.547 h -37.836 c -0.302,0 -0.72,0.173 -0.934,0.387 l -20.497,20.497 c -0.215,0.214 -0.388,0.632 -0.388,0.934 v 37.836 c 0,0.302 0.247,0.548 0.548,0.548 z m 38.944,-3.816 v -16.895 h 0.31 c 0.302,0 0.547,-0.245 0.547,-0.547 v -0.82 c 0,-0.302 -0.245,-0.547 -0.547,-0.547 h -0.31 v -14.966 c 0,-0.302 0.173,-0.721 0.387,-0.934 l 18.023,-18.022 c 0.213,-0.214 0.386,-0.142 0.386,0.16 v 33.775 c 0,0.303 -0.173,0.721 -0.386,0.934 l -18.024,18.022 c -0.214,0.214 -0.386,0.142 -0.386,-0.16 z m -35.836,-36.062 17.471,-17.47 c 0.042,0.01 0.086,0.018 0.132,0.018 h 0.82 c 0.303,0 0.547,-0.245 0.547,-0.547 v -0.41 h 33.762 c 0.302,0 0.374,0.173 0.16,0.386 l -18.023,18.023 c -0.213,0.214 -0.632,0.387 -0.934,0.387 h -14.966 v -0.064 c 0,-0.303 -0.244,-0.547 -0.547,-0.547 h -0.82 c -0.302,0 -0.548,0.244 -0.548,0.547 v 0.064 h -1.824 v -11.878 c 0,-0.245 -0.141,-0.303 -0.313,-0.13 l -12.007,12.007 h -2.75 c -0.302,0 -0.374,-0.172 -0.16,-0.386 z m -1.741,2.847 c 0,-0.301 0.244,-0.547 0.547,-0.547 h 2.19 l -0.661,0.661 c -0.173,0.173 -0.313,0.511 -0.313,0.755 v 27.328 c 0,0.245 0.142,0.304 0.316,0.133 l 14.574,-14.269 c 0.175,-0.171 0.316,-0.507 0.316,-0.752 v -13.856 h 18.147 c 0.301,0 0.547,0.246 0.547,0.547 v 34.57 c 0,0.302 -0.246,0.546 -0.547,0.546 h -34.569 c -0.303,0 -0.547,-0.244 -0.547,-0.546 z"
       inkscape:connector-curvature="0"
       style="fill:#787879;fill-opacity:1" />
  </g>
</svg>
