<?xml version="1.0" encoding="UTF-8" standalone="no"?>
<!-- Created with Inkscape (http://www.inkscape.org/) -->

<svg
   xmlns:dc="http://purl.org/dc/elements/1.1/"
   xmlns:cc="http://creativecommons.org/ns#"
   xmlns:rdf="http://www.w3.org/1999/02/22-rdf-syntax-ns#"
   xmlns:svg="http://www.w3.org/2000/svg"
   xmlns="http://www.w3.org/2000/svg"
   xmlns:sodipodi="http://sodipodi.sourceforge.net/DTD/sodipodi-0.dtd"
   xmlns:inkscape="http://www.inkscape.org/namespaces/inkscape"
   version="1.1"
   id="svg826"
   width="25"
   height="25"
   viewBox="0 0 25 25"
   sodipodi:docname="right_hover.svg"
   inkscape:version="0.92.3 (2405546, 2018-03-11)"
   inkscape:export-filename="C:\Users\johnpierson\Documents\Repos\MonocleForDynamo\src\Icons\StandardViews\right_hover.png"
   inkscape:export-xdpi="96"
   inkscape:export-ydpi="96">
  <metadata
     id="metadata832">
    <rdf:RDF>
      <cc:Work
         rdf:about="">
        <dc:format>image/svg+xml</dc:format>
        <dc:type
           rdf:resource="http://purl.org/dc/dcmitype/StillImage" />
        <dc:title></dc:title>
      </cc:Work>
    </rdf:RDF>
  </metadata>
  <defs
     id="defs830" />
  <sodipodi:namedview
     pagecolor="#ffffff"
     bordercolor="#666666"
     borderopacity="1"
     objecttolerance="10"
     gridtolerance="10"
     guidetolerance="10"
     inkscape:pageopacity="0"
     inkscape:pageshadow="2"
     inkscape:window-width="1921"
     inkscape:window-height="1018"
     id="namedview828"
     showgrid="false"
     inkscape:zoom="10.012632"
     inkscape:cx="48.522654"
     inkscape:cy="24.096299"
     inkscape:window-x="951"
     inkscape:window-y="0"
     inkscape:window-maximized="0"
     inkscape:current-layer="svg826" />
  <g
     id="g1601"
     transform="matrix(0.33221488,0,0,0.33221488,8.5407694,29.92792)"
     style="fill:#cdcccc;fill-opacity:1">
    <path
       id="path1478"
       d="m -17.63632,-22.35878 h 37.837 c 0.302,0 0.72,-0.173 0.934,-0.388 l 20.497,-20.497 c 0.214,-0.214 0.387,-0.632 0.387,-0.934 v -37.836 c 0,-0.302 -0.244,-0.547 -0.547,-0.547 h -37.836 c -0.302,0 -0.72,0.173 -0.934,0.387 l -20.497,20.497 c -0.214,0.214 -0.388,0.632 -0.388,0.934 v 37.836 c 0,0.302 0.246,0.548 0.547,0.548 z m 57.742,-22.612 c 0,0.303 -0.174,0.721 -0.388,0.934 l -18.023,18.022 c -0.213,0.214 -0.387,0.142 -0.387,-0.16 v -17.252 c 0.022,-0.061 0.036,-0.123 0.036,-0.19 v -0.82 c 0,-0.067 -0.014,-0.13 -0.036,-0.19 v -15.323 c 0,-0.302 0.174,-0.721 0.387,-0.934 l 18.023,-18.022 c 0.214,-0.214 0.388,-0.142 0.388,0.16 z m -54.633,-17.266 18.022,-18.023 c 0.213,-0.213 0.631,-0.386 0.934,-0.386 h 33.775 c 0.303,0 0.373,0.173 0.16,0.386 l -18.022,18.023 c -0.214,0.214 -0.632,0.387 -0.935,0.387 h -14.965 v -0.064 c 0,-0.303 -0.244,-0.547 -0.547,-0.547 h -0.82 c -0.302,0 -0.548,0.244 -0.548,0.547 v 0.064 h -16.894 c -0.302,-10e-4 -0.374,-0.173 -0.16,-0.387 z m -1.741,2.847 c 0,-0.301 0.244,-0.547 0.547,-0.547 h 34.569 c 0.302,0 0.547,0.246 0.547,0.547 v 34.57 c 0,0.302 -0.245,0.546 -0.547,0.546 h -34.569 c -0.303,0 -0.547,-0.244 -0.547,-0.546 z"
       inkscape:connector-curvature="0"
       style="fill:#cdcccc;fill-opacity:1" />
    <path
       id="path1480"
       d="m -11.61332,-28.34878 c 0.214,0.214 0.56,0.214 0.774,0 l 0.58,-0.581 c 0.213,-0.213 0.213,-0.56 0,-0.772 l -0.581,-0.58 c -0.214,-0.214 -0.56,-0.214 -0.773,0 l -0.58,0.58 c -0.213,0.213 -0.213,0.56 0,0.772 z"
       inkscape:connector-curvature="0"
       style="fill:#cdcccc;fill-opacity:1" />
    <path
       id="path1482"
       d="m -14.32032,-25.64278 c 0.214,0.215 0.56,0.215 0.773,0 l 0.581,-0.58 c 0.213,-0.213 0.213,-0.56 0,-0.772 l -0.581,-0.58 c -0.214,-0.214 -0.56,-0.214 -0.773,0 l -0.58,0.58 c -0.213,0.213 -0.213,0.56 0,0.772 z"
       inkscape:connector-curvature="0"
       style="fill:#cdcccc;fill-opacity:1" />
    <path
       id="path1484"
       d="m 3.07468,-68.20478 h 0.82 c 0.303,0 0.547,-0.244 0.547,-0.547 v -0.819 c 0,-0.303 -0.244,-0.548 -0.547,-0.548 h -0.82 c -0.302,0 -0.548,0.245 -0.548,0.548 v 0.819 c 0,0.303 0.246,0.547 0.548,0.547 z"
       inkscape:connector-curvature="0"
       style="fill:#cdcccc;fill-opacity:1" />
    <path
       id="path1486"
       d="m 3.07468,-56.71978 h 0.82 c 0.303,0 0.547,-0.245 0.547,-0.547 v -0.82 c 0,-0.303 -0.244,-0.547 -0.547,-0.547 h -0.82 c -0.302,0 -0.548,0.244 -0.548,0.547 v 0.82 c 0,0.302 0.246,0.547 0.548,0.547 z"
       inkscape:connector-curvature="0"
       style="fill:#cdcccc;fill-opacity:1" />
    <path
       id="path1488"
       d="m -8.90632,-31.05678 c 0.214,0.215 0.561,0.215 0.774,0 l 0.58,-0.58 c 0.213,-0.213 0.213,-0.56 0,-0.772 l -0.581,-0.58 c -0.213,-0.214 -0.56,-0.214 -0.773,0 l -0.58,0.58 c -0.213,0.213 -0.213,0.56 0,0.772 z"
       inkscape:connector-curvature="0"
       style="fill:#cdcccc;fill-opacity:1" />
    <path
       id="path1490"
       d="m 3.07468,-72.03278 h 0.82 c 0.303,0 0.547,-0.244 0.547,-0.546 v -0.821 c 0,-0.302 -0.244,-0.547 -0.547,-0.547 h -0.82 c -0.302,0 -0.548,0.245 -0.548,0.547 v 0.821 c 0,0.302 0.246,0.546 0.548,0.546 z"
       inkscape:connector-curvature="0"
       style="fill:#cdcccc;fill-opacity:1" />
    <path
       id="path1492"
       d="m 3.07468,-52.89178 h 0.82 c 0.303,0 0.547,-0.244 0.547,-0.547 v -0.819 c 0,-0.303 -0.244,-0.548 -0.547,-0.548 h -0.82 c -0.302,0 -0.548,0.245 -0.548,0.548 v 0.819 c 0,0.303 0.246,0.547 0.548,0.547 z"
       inkscape:connector-curvature="0"
       style="fill:#cdcccc;fill-opacity:1" />
    <path
       id="path1494"
       d="m 3.07468,-75.86078 h 0.82 c 0.303,0 0.547,-0.245 0.547,-0.547 v -0.82 c 0,-0.303 -0.244,-0.547 -0.547,-0.547 h -0.82 c -0.302,0 -0.548,0.244 -0.548,0.547 v 0.82 c 0,0.302 0.246,0.547 0.548,0.547 z"
       inkscape:connector-curvature="0"
       style="fill:#cdcccc;fill-opacity:1" />
    <path
       id="path1496"
       d="m 3.07468,-64.37678 h 0.82 c 0.303,0 0.547,-0.244 0.547,-0.546 v -0.82 c 0,-0.303 -0.244,-0.547 -0.547,-0.547 h -0.82 c -0.302,0 -0.548,0.244 -0.548,0.547 v 0.82 c 0,0.302 0.246,0.546 0.548,0.546 z"
       inkscape:connector-curvature="0"
       style="fill:#cdcccc;fill-opacity:1" />
    <path
       id="path1498"
       d="m -3.49232,-36.46978 c 0.214,0.214 0.561,0.214 0.773,0 l 0.581,-0.58 c 0.214,-0.214 0.214,-0.561 0,-0.773 l -0.581,-0.58 c -0.213,-0.214 -0.56,-0.214 -0.773,0 l -0.58,0.58 c -0.213,0.213 -0.213,0.56 0,0.772 z"
       inkscape:connector-curvature="0"
       style="fill:#cdcccc;fill-opacity:1" />
    <path
       id="path1500"
       d="m -6.19932,-33.76278 c 0.214,0.214 0.561,0.214 0.773,0 l 0.58,-0.581 c 0.215,-0.213 0.215,-0.56 0,-0.772 l -0.58,-0.58 c -0.213,-0.214 -0.56,-0.214 -0.773,0 l -0.58,0.58 c -0.213,0.213 -0.213,0.56 0,0.772 z"
       inkscape:connector-curvature="0"
       style="fill:#cdcccc;fill-opacity:1" />
    <path
       id="path1502"
       d="m -0.78532,-39.17678 c 0.214,0.214 0.561,0.214 0.773,0 l 0.58,-0.58 c 0.214,-0.213 0.214,-0.561 0,-0.773 l -0.58,-0.58 c -0.213,-0.214 -0.56,-0.214 -0.773,0 l -0.579,0.58 c -0.214,0.213 -0.214,0.56 0,0.773 z"
       inkscape:connector-curvature="0"
       style="fill:#cdcccc;fill-opacity:1" />
    <path
       id="path1504"
       d="m 3.07468,-45.23478 h 0.82 c 0.303,0 0.547,-0.244 0.547,-0.547 v -0.819 c 0,-0.303 -0.244,-0.547 -0.547,-0.547 h -0.82 c -0.302,0 -0.548,0.244 -0.548,0.547 v 0.819 c 0,0.302 0.246,0.547 0.548,0.547 z"
       inkscape:connector-curvature="0"
       style="fill:#cdcccc;fill-opacity:1" />
    <path
       id="path1506"
       d="m 3.07468,-49.06378 h 0.82 c 0.303,0 0.547,-0.244 0.547,-0.547 v -0.819 c 0,-0.303 -0.244,-0.547 -0.547,-0.547 h -0.82 c -0.302,0 -0.548,0.244 -0.548,0.547 v 0.819 c 0,0.303 0.246,0.547 0.548,0.547 z"
       inkscape:connector-curvature="0"
       style="fill:#cdcccc;fill-opacity:1" />
    <path
       id="path1508"
       d="m 1.92268,-41.88378 c 0.213,0.214 0.56,0.214 0.772,0 l 0.58,-0.58 c 0.214,-0.213 0.214,-0.56 0,-0.772 l -0.58,-0.581 c -0.213,-0.214 -0.56,-0.214 -0.772,0 l -0.58,0.579 c -0.215,0.214 -0.215,0.562 0,0.774 z"
       inkscape:connector-curvature="0"
       style="fill:#cdcccc;fill-opacity:1" />
    <path
       id="path1510"
       d="m 12.31968,-43.06978 h 0.82 c 0.302,0 0.547,-0.245 0.547,-0.547 v -0.82 c 0,-0.302 -0.245,-0.547 -0.547,-0.547 h -0.82 c -0.302,0 -0.547,0.245 -0.547,0.547 v 0.82 c 0,0.302 0.246,0.547 0.547,0.547 z"
       inkscape:connector-curvature="0"
       style="fill:#cdcccc;fill-opacity:1" />
    <path
       id="path1512"
       d="m 8.49168,-43.06978 h 0.82 c 0.302,0 0.547,-0.245 0.547,-0.547 v -0.82 c 0,-0.302 -0.245,-0.547 -0.547,-0.547 h -0.82 c -0.302,0 -0.547,0.245 -0.547,0.547 v 0.82 c 0,0.302 0.245,0.547 0.547,0.547 z"
       inkscape:connector-curvature="0"
       style="fill:#cdcccc;fill-opacity:1" />
    <path
       id="path1514"
       d="m 4.11668,-44.43778 v 0.82 c 0,0.302 0.245,0.547 0.547,0.547 h 0.82 c 0.302,0 0.547,-0.245 0.547,-0.547 v -0.82 c 0,-0.302 -0.245,-0.547 -0.547,-0.547 h -0.82 c -0.302,10e-4 -0.547,0.246 -0.547,0.547 z"
       inkscape:connector-curvature="0"
       style="fill:#cdcccc;fill-opacity:1" />
    <path
       id="path1516"
       d="m 16.14768,-43.06978 h 0.82 c 0.302,0 0.548,-0.245 0.548,-0.547 v -0.82 c 0,-0.302 -0.246,-0.547 -0.548,-0.547 h -0.82 c -0.302,0 -0.546,0.245 -0.546,0.547 v 0.82 c 10e-4,0.302 0.245,0.547 0.546,0.547 z"
       inkscape:connector-curvature="0"
       style="fill:#cdcccc;fill-opacity:1" />
    <path
       id="path1518"
       d="m 38.45768,-75.20878 -15.503,15.504 c -0.184,0.183 -0.332,0.543 -0.332,0.803 v 29.052 c 0,0.26 0.15,0.324 0.336,0.142 l 15.495,-15.169 c 0.187,-0.183 0.337,-0.54 0.337,-0.799 v -29.395 c 0,-0.259 -0.149,-0.322 -0.333,-0.138 z"
       inkscape:connector-curvature="0"
       style="fill:#cdcccc;fill-opacity:1" />
  </g>
</svg>
