<?xml version="1.0" encoding="UTF-8" standalone="no"?>
<!-- Created with Inkscape (http://www.inkscape.org/) -->

<svg
   xmlns:dc="http://purl.org/dc/elements/1.1/"
   xmlns:cc="http://creativecommons.org/ns#"
   xmlns:rdf="http://www.w3.org/1999/02/22-rdf-syntax-ns#"
   xmlns:svg="http://www.w3.org/2000/svg"
   xmlns="http://www.w3.org/2000/svg"
   xmlns:sodipodi="http://sodipodi.sourceforge.net/DTD/sodipodi-0.dtd"
   xmlns:inkscape="http://www.inkscape.org/namespaces/inkscape"
   version="1.1"
   id="svg826"
   width="33.333332"
   height="33.333332"
   viewBox="0 0 33.333332 33.333332"
   sodipodi:docname="top_normal.svg"
   inkscape:version="0.92.3 (2405546, 2018-03-11)"
   inkscape:export-filename="C:\Users\johnpierson\Desktop\New folder\ViewCube\top_normal.png"
   inkscape:export-xdpi="96"
   inkscape:export-ydpi="96">
  <metadata
     id="metadata832">
    <rdf:RDF>
      <cc:Work
         rdf:about="">
        <dc:format>image/svg+xml</dc:format>
        <dc:type
           rdf:resource="http://purl.org/dc/dcmitype/StillImage" />
        <dc:title />
      </cc:Work>
    </rdf:RDF>
  </metadata>
  <defs
     id="defs830" />
  <sodipodi:namedview
     pagecolor="#ffffff"
     bordercolor="#666666"
     borderopacity="1"
     objecttolerance="10"
     gridtolerance="10"
     guidetolerance="10"
     inkscape:pageopacity="0"
     inkscape:pageshadow="2"
     inkscape:window-width="1921"
     inkscape:window-height="1018"
     id="namedview828"
     showgrid="false"
     inkscape:zoom="5.0063162"
     inkscape:cx="-0.53083786"
     inkscape:cy="60.912778"
     inkscape:window-x="951"
     inkscape:window-y="0"
     inkscape:window-maximized="0"
     inkscape:current-layer="svg826" />
  <g
     id="g1780"
     transform="matrix(0.49833059,0,0,0.49832231,20.980131,49.278562)"
     style="fill:#787879;fill-opacity:1">
    <path
       id="path1657"
       d="m -38.20933,-35.34238 h 37.835 c 0.303,0 0.721,-0.173 0.935,-0.388 l 20.497,-20.497 c 0.214,-0.214 0.387,-0.632 0.387,-0.934 v -37.836 c 0,-0.302 -0.245,-0.547 -0.547,-0.547 h -37.837 c -0.303,0 -0.72,0.173 -0.935,0.387 l -20.496,20.497 c -0.214,0.214 -0.386,0.632 -0.386,0.934 v 37.836 c 0,0.302 0.244,0.548 0.547,0.548 z m 57.739,-22.612 c 0,0.303 -0.173,0.721 -0.387,0.934 l -18.022,18.022 c -0.214,0.214 -0.388,0.142 -0.388,-0.16 v -17.252 c 0.022,-0.061 0.036,-0.123 0.036,-0.19 v -0.82 c 0,-0.067 -0.014,-0.13 -0.036,-0.19 v -15.323 c 0,-0.302 0.174,-0.721 0.388,-0.934 l 18.022,-18.022 c 0.214,-0.214 0.387,-0.142 0.387,0.16 z m -54.633,-17.266 18.023,-18.023 c 0.214,-0.213 0.632,-0.386 0.933,-0.386 h 33.776 c 0.302,0 0.374,0.173 0.16,0.386 l -18.023,18.023 c -0.213,0.214 -0.631,0.387 -0.933,0.387 h -33.776 c -0.301,-10e-4 -0.374,-0.173 -0.16,-0.387 z m -1.193,2.3 h 34.569 c 0.301,0 0.547,0.246 0.547,0.547 v 34.57 c 0,0.302 -0.246,0.546 -0.547,0.546 h -34.51 l -0.012,-0.014 -0.58,-0.58 -0.015,-0.012 v -34.51 c 10e-4,-0.3 0.246,-0.547 0.548,-0.547 z"
       inkscape:connector-curvature="0"
       style="fill:#787879;fill-opacity:1" />
    <path
       id="path1659"
       d="m -26.77433,-46.74638 c 0.214,0.214 0.561,0.214 0.773,0 l 0.58,-0.581 c 0.214,-0.213 0.214,-0.56 0,-0.772 l -0.58,-0.58 c -0.213,-0.214 -0.561,-0.214 -0.773,0 l -0.58,0.58 c -0.214,0.213 -0.214,0.56 0,0.772 z"
       inkscape:connector-curvature="0"
       style="fill:#787879;fill-opacity:1" />
    <path
       id="path1661"
       d="m -17.49933,-69.70338 h 0.82 c 0.302,0 0.546,-0.245 0.546,-0.547 v -0.82 c 0,-0.303 -0.244,-0.547 -0.546,-0.547 h -0.82 c -0.302,0 -0.547,0.244 -0.547,0.547 v 0.82 c 0,0.302 0.245,0.547 0.547,0.547 z"
       inkscape:connector-curvature="0"
       style="fill:#787879;fill-opacity:1" />
    <path
       id="path1663"
       d="m -24.06733,-49.45338 c 0.213,0.214 0.561,0.214 0.773,0 l 0.58,-0.58 c 0.214,-0.214 0.214,-0.561 0,-0.773 l -0.581,-0.58 c -0.213,-0.214 -0.56,-0.214 -0.772,0 l -0.58,0.58 c -0.214,0.213 -0.214,0.56 0,0.772 z"
       inkscape:connector-curvature="0"
       style="fill:#787879;fill-opacity:1" />
    <path
       id="path1665"
       d="m -29.48033,-44.04038 c 0.213,0.215 0.56,0.215 0.772,0 l 0.58,-0.58 c 0.214,-0.213 0.214,-0.56 0,-0.772 l -0.58,-0.58 c -0.213,-0.214 -0.56,-0.214 -0.773,0 l -0.58,0.58 c -0.214,0.213 -0.214,0.56 0,0.772 z"
       inkscape:connector-curvature="0"
       style="fill:#787879;fill-opacity:1" />
    <path
       id="path1667"
       d="m -32.18733,-41.33238 c 0.213,0.214 0.56,0.214 0.772,0 l 0.58,-0.581 c 0.214,-0.213 0.214,-0.56 0,-0.772 l -0.58,-0.58 c -0.213,-0.214 -0.561,-0.214 -0.773,0 l -0.58,0.58 c -0.214,0.213 -0.214,0.56 0,0.772 z"
       inkscape:connector-curvature="0"
       style="fill:#787879;fill-opacity:1" />
    <path
       id="path1669"
       d="m -34.89533,-38.62638 c 0.214,0.215 0.561,0.215 0.773,0 l 0.58,-0.58 c 0.214,-0.213 0.214,-0.56 0,-0.772 l -0.58,-0.58 c -0.214,-0.214 -0.56,-0.214 -0.773,0 l -0.579,0.58 c -0.215,0.213 -0.215,0.56 0,0.772 z"
       inkscape:connector-curvature="0"
       style="fill:#787879;fill-opacity:1" />
    <path
       id="path1671"
       d="m -17.49933,-58.21838 h 0.82 c 0.302,0 0.546,-0.244 0.546,-0.547 v -0.819 c 0,-0.303 -0.244,-0.547 -0.546,-0.547 h -0.82 c -0.302,0 -0.547,0.244 -0.547,0.547 v 0.819 c 0,0.302 0.245,0.547 0.547,0.547 z"
       inkscape:connector-curvature="0"
       style="fill:#787879;fill-opacity:1" />
    <path
       id="path1673"
       d="m -18.65333,-54.86738 c 0.213,0.214 0.56,0.214 0.773,0 l 0.58,-0.58 c 0.214,-0.213 0.214,-0.56 0,-0.772 l -0.58,-0.581 c -0.214,-0.214 -0.561,-0.214 -0.773,0 l -0.58,0.579 c -0.213,0.214 -0.213,0.562 0,0.774 z"
       inkscape:connector-curvature="0"
       style="fill:#787879;fill-opacity:1" />
    <path
       id="path1675"
       d="m -21.36033,-52.16038 c 0.213,0.214 0.56,0.214 0.773,0 l 0.58,-0.58 c 0.214,-0.213 0.214,-0.561 0,-0.773 l -0.58,-0.58 c -0.214,-0.214 -0.561,-0.214 -0.773,0 l -0.58,0.58 c -0.213,0.213 -0.213,0.56 0,0.773 z"
       inkscape:connector-curvature="0"
       style="fill:#787879;fill-opacity:1" />
    <path
       id="path1677"
       d="m -17.49933,-65.87538 h 0.82 c 0.302,0 0.546,-0.244 0.546,-0.547 v -0.819 c 0,-0.303 -0.244,-0.548 -0.546,-0.548 h -0.82 c -0.302,0 -0.547,0.245 -0.547,0.548 v 0.819 c 0,0.303 0.245,0.547 0.547,0.547 z"
       inkscape:connector-curvature="0"
       style="fill:#787879;fill-opacity:1" />
    <path
       id="path1679"
       d="m -17.49933,-62.04738 h 0.82 c 0.302,0 0.546,-0.244 0.546,-0.547 v -0.819 c 0,-0.303 -0.244,-0.547 -0.546,-0.547 h -0.82 c -0.302,0 -0.547,0.244 -0.547,0.547 v 0.819 c 0,0.303 0.245,0.547 0.547,0.547 z"
       inkscape:connector-curvature="0"
       style="fill:#787879;fill-opacity:1" />
    <path
       id="path1681"
       d="m 11.70767,-57.96738 h -0.82 c -0.302,0 -0.547,0.245 -0.547,0.547 v 0.82 c 0,0.302 0.245,0.547 0.547,0.547 h 0.82 c 0.302,0 0.547,-0.245 0.547,-0.547 v -0.82 c 0,-0.302 -0.245,-0.547 -0.547,-0.547 z"
       inkscape:connector-curvature="0"
       style="fill:#787879;fill-opacity:1" />
    <path
       id="path1683"
       d="m 4.05067,-57.96738 h -0.819 c -0.303,0 -0.547,0.245 -0.547,0.547 v 0.82 c 0,0.302 0.244,0.547 0.547,0.547 h 0.819 c 0.303,0 0.547,-0.245 0.547,-0.547 v -0.82 c -0.001,-0.302 -0.245,-0.547 -0.547,-0.547 z"
       inkscape:connector-curvature="0"
       style="fill:#787879;fill-opacity:1" />
    <path
       id="path1685"
       d="m -16.45733,-57.42138 v 0.82 c 0,0.302 0.244,0.547 0.547,0.547 h 0.82 c 0.302,0 0.547,-0.245 0.547,-0.547 v -0.82 c 0,-0.302 -0.245,-0.547 -0.547,-0.547 h -0.82 c -0.303,0.001 -0.547,0.246 -0.547,0.547 z"
       inkscape:connector-curvature="0"
       style="fill:#787879;fill-opacity:1" />
    <path
       id="path1687"
       d="m 7.87967,-57.96738 h -0.82 c -0.303,0 -0.547,0.245 -0.547,0.547 v 0.82 c 0,0.302 0.244,0.547 0.547,0.547 h 0.82 c 0.301,0 0.547,-0.245 0.547,-0.547 v -0.82 c 0,-0.302 -0.247,-0.547 -0.547,-0.547 z"
       inkscape:connector-curvature="0"
       style="fill:#787879;fill-opacity:1" />
    <path
       id="path1689"
       d="m -12.08233,-56.05338 h 0.82 c 0.302,0 0.547,-0.245 0.547,-0.547 v -0.82 c 0,-0.302 -0.245,-0.547 -0.547,-0.547 h -0.82 c -0.303,0 -0.547,0.245 -0.547,0.547 v 0.82 c 0,0.302 0.244,0.547 0.547,0.547 z"
       inkscape:connector-curvature="0"
       style="fill:#787879;fill-opacity:1" />
    <path
       id="path1691"
       d="m -8.25433,-56.05338 h 0.82 c 0.302,0 0.547,-0.245 0.547,-0.547 v -0.82 c 0,-0.302 -0.245,-0.547 -0.547,-0.547 h -0.82 c -0.303,0 -0.547,0.245 -0.547,0.547 v 0.82 c 0,0.302 0.244,0.547 0.547,0.547 z"
       inkscape:connector-curvature="0"
       style="fill:#787879;fill-opacity:1" />
    <path
       id="path1693"
       d="m -4.42633,-56.05338 h 0.82 c 0.303,0 0.547,-0.245 0.547,-0.547 v -0.82 c 0,-0.302 -0.244,-0.547 -0.547,-0.547 h -0.82 c -0.302,0 -0.547,0.245 -0.547,0.547 v 0.82 c 0,0.302 0.245,0.547 0.547,0.547 z"
       inkscape:connector-curvature="0"
       style="fill:#787879;fill-opacity:1" />
    <path
       id="path1695"
       d="m 15.53567,-57.96738 h -0.819 c -0.303,0 -0.547,0.245 -0.547,0.547 v 0.82 c 0,0.302 0.244,0.547 0.547,0.547 h 0.819 c 0.302,0 0.547,-0.245 0.547,-0.547 v -0.82 c 0,-0.302 -0.245,-0.547 -0.547,-0.547 z"
       inkscape:connector-curvature="0"
       style="fill:#787879;fill-opacity:1" />
    <path
       id="path1697"
       d="m -31.88333,-75.92738 h 29.845 c 0.267,0 0.636,-0.153 0.825,-0.341 l 15.926,-15.926 c 0.188,-0.189 0.125,-0.343 -0.142,-0.343 h -29.846 c -0.267,0 -0.636,0.153 -0.824,0.343 l -15.925,15.926 c -0.189,0.187 -0.126,0.341 0.141,0.341 z"
       inkscape:connector-curvature="0"
       style="fill:#787879;fill-opacity:1" />
  </g>
</svg>
